<svg id="Layer_1" data-name="Layer 1" xmlns="http://www.w3.org/2000/svg" viewBox="0 0 49.94 50.01"><defs><style>.cls-1{fill:#ffd197;}.cls-2{fill:#2d1306;}</style></defs><g id="Слой_2" data-name="Слой 2"><g id="Слой_1-2" data-name="Слой 1-2"><path class="cls-1" d="M0,44.06V5.75c.16-.09.1-.26.14-.39A6.68,6.68,0,0,1,5.36.15.42.42,0,0,0,5.75,0H44c0,.07.09.08.15.09a6.66,6.66,0,0,1,5.68,6.68V43a6.68,6.68,0,0,1-6.56,6.8H32.87c-.34,0-.47-.06-.47-.44V32.43c0-.38.12-.45.47-.45h5.49a1.13,1.13,0,0,0,1.28-1,1.09,1.09,0,0,0,0-.18c.2-1.7.4-3.41.61-5.11.15-1.2-.23-1.65-1.44-1.65h-6c-.2,0-.44.05-.43-.29a54.88,54.88,0,0,1,.09-5.59A2.52,2.52,0,0,1,34.14,16a4,4,0,0,1,1.37-.28h3.3a1.13,1.13,0,0,0,1.29-1.28V10c0-.91-.4-1.31-1.31-1.31-1.83,0-3.66-.07-5.49,0a8.8,8.8,0,0,0-8.61,8.89c-.12,2,0,4,0,6.07,0,.36-.1.47-.47.47H20.33c-1,0-1.35.39-1.35,1.36v5.15c0,1,.39,1.39,1.38,1.39H24.3c.32,0,.41.09.41.41v17c0,.27,0,.44-.38.44H6.54a6.64,6.64,0,0,1-6.27-5C.16,44.5.18,44.25,0,44.06Z" transform="translate(0 0)"/><path class="cls-2" d="M0,44.06a1.34,1.34,0,0,1,.2.67,6.64,6.64,0,0,0,6.27,5H24.26c.37,0,.38-.17.38-.44v-17c0-.32-.09-.41-.41-.41H20.29c-1,0-1.38-.39-1.38-1.39V25.34c0-1,.38-1.36,1.35-1.36h3.89c.37,0,.47-.11.47-.47,0-2-.08-4.05,0-6.07a8.8,8.8,0,0,1,8.61-8.89c1.83-.12,3.66,0,5.49,0,.9,0,1.3.4,1.31,1.31v4.42a1.13,1.13,0,0,1-1.29,1.28h-3.3a4,4,0,0,0-1.37.28,2.52,2.52,0,0,0-1.65,2.27c-.19,1.86,0,3.72-.09,5.59,0,.35.22.29.43.29h6c1.21,0,1.59.44,1.44,1.65-.21,1.7-.4,3.41-.61,5.11a1.13,1.13,0,0,1-1,1.25H32.91c-.35,0-.47.07-.47.45V49.37c0,.39.13.45.47.44H43a6.68,6.68,0,0,0,6.79-6.57V6.79A6.66,6.66,0,0,0,44.11.1C44,.09,44,.08,44,0h5.54c.33,0,.4.07.4.4V49.75c0,.21,0,.29-.25.25H.45C.08,50,0,49.92,0,49.55Z" transform="translate(0 0)"/><path class="cls-2" d="M5.75,0c-.09.16-.26.1-.39.14A6.68,6.68,0,0,0,.15,5.36.42.42,0,0,1,0,5.75C0,3.93,0,2.12,0,.3,0,.06.06,0,.3,0Z" transform="translate(0 0)"/></g></g></svg>