<svg xmlns="http://www.w3.org/2000/svg" viewBox="0 0 50 49.99"><defs><style>.cls-1{fill:#ffd197;}</style></defs><title>Ресурс 1</title><g id="Слой_2" data-name="Слой 2"><g id="Слой_1-2" data-name="Слой 1"><g id="Слой_2-2" data-name="Слой 2"><g id="Слой_1-2-2" data-name="Слой 1-2"><path class="cls-1" d="M16.31,0H33.59s.06.09.1.09c.9,0,1.81.14,2.71.18a15.57,15.57,0,0,1,2.67.37,13,13,0,0,1,10.44,11,34.23,34.23,0,0,1,.39,4.2c0,.15-.09.33.1.44V33.69c-.14.06-.09.19-.09.3,0,1-.09,2-.19,3.07a15.07,15.07,0,0,1-2.17,6.59,12.19,12.19,0,0,1-4.16,4,.84.84,0,0,0-.32-.57l-2.4-2.4c-.13-.14-.3-.25-.32-.47a8.42,8.42,0,0,0,4.18-4.57,12.32,12.32,0,0,0,.79-3.9c.32-6.71.26-13.43.09-20.15A17.31,17.31,0,0,0,44.75,11a8.17,8.17,0,0,0-5.09-5.55A17.07,17.07,0,0,0,34,4.59c-4.49-.16-9-.1-13.47-.08a56.91,56.91,0,0,0-7.88.38A9.09,9.09,0,0,0,8,6.8,8.27,8.27,0,0,0,5.23,11a.78.78,0,0,1-.49-.29c-.4-.4-.81-.79-1.2-1.2a21.32,21.32,0,0,1-1.8-1.88A5.47,5.47,0,0,1,2,7.13C4.83,2.17,9.34.29,14.82.2A4.08,4.08,0,0,0,16.31,0Z"/><path class="cls-1" d="M1.75,7.66a21.32,21.32,0,0,0,1.8,1.88c.39.41.8.8,1.2,1.2a.78.78,0,0,0,.49.29,20.9,20.9,0,0,0-.64,5.31c-.14,6.1-.16,12.2,0,18.3a18.19,18.19,0,0,0,.46,3.76,8.36,8.36,0,0,0,4.71,5.9,11.24,11.24,0,0,0,4.33,1c6.75.33,13.5.24,20.24.08a15.21,15.21,0,0,0,6-1.14c0,.22.18.33.32.47l2.4,2.4a.84.84,0,0,1,.32.57A11.32,11.32,0,0,1,41,48.83a21.75,21.75,0,0,1-6.81,1.07c-.16,0-.36-.09-.49.09H16.21c-.12-.2-.32-.1-.48-.11a26.35,26.35,0,0,1-5.07-.59,12.78,12.78,0,0,1-9.36-8A20.85,20.85,0,0,1,.1,34.18c0-.16.09-.36-.1-.49V16.21c.16-.08.09-.23.09-.35a34,34,0,0,1,.3-3.73A14.38,14.38,0,0,1,1.75,7.66Z"/><path class="cls-1" d="M13.67,19a11,11,0,0,1,2.72-3.52,12.36,12.36,0,0,1,12.72-2.61,12.21,12.21,0,0,1,8.49,9.82,12.27,12.27,0,0,1-2.7,10.45,13.42,13.42,0,0,1-3,2.7c-.22.15-.47.26-.7.4A1.13,1.13,0,0,0,31,36l-2.68-2.66a.81.81,0,0,1-.33-.62.7.7,0,0,0,.3-.12A8.36,8.36,0,0,0,28,17.22a8.19,8.19,0,0,0-6.2.09,8.3,8.3,0,0,0-4.69,5c-.5-.18-.77-.63-1.12-1A29.78,29.78,0,0,1,13.67,19Z"/><path class="cls-1" d="M13.67,19A29.78,29.78,0,0,0,16,21.37a3.59,3.59,0,0,0,1.12,1,8,8,0,0,0-.31,4,10.45,10.45,0,0,0,.9,2.6,8.34,8.34,0,0,0,4.73,4A8.19,8.19,0,0,0,28,32.77a.81.81,0,0,0,.33.62L31,36a1.13,1.13,0,0,1,.13.2,12,12,0,0,1-6.28,1.59A12.76,12.76,0,0,1,12.34,27.11,12.11,12.11,0,0,1,13.67,19Z"/><path class="cls-1" d="M41.32,11.64a3,3,0,1,1-3-3A3,3,0,0,1,41.32,11.64Z"/></g></g></g></g></svg>