<svg xmlns="http://www.w3.org/2000/svg" viewBox="0 0 150 12.01"><defs><style>.cls-1{fill:#ffd197;}</style></defs><title>Ресурс 2</title><g id="Слой_2" data-name="Слой 2"><g id="Default"><path class="cls-1" d="M139.46,6.74a1.06,1.06,0,0,1,0,.14,2.06,2.06,0,0,0-.08.36.35.35,0,0,0,0,.2.11.11,0,0,0,.08.06.25.25,0,0,0,.13,0,1,1,0,0,0,.23-.17l.23-.22.25-.23a10,10,0,0,1,1.49-1.08,10.33,10.33,0,0,1,2.94-1.23,5.18,5.18,0,0,1,3.55.17,3.21,3.21,0,0,1,1.57,1.81,2.55,2.55,0,0,1-.22,2.22,2.51,2.51,0,0,1-2.12.94A2.7,2.7,0,0,1,146,9.11a.41.41,0,0,1-.17-.23c0-.06,0-.13,0-.15s.09,0,.14.05l.18.14a1.73,1.73,0,0,0,1.64.07,1.88,1.88,0,0,0,1-1.76,2.31,2.31,0,0,0-1.18-1.76,4.13,4.13,0,0,0-2.92-.22,8.12,8.12,0,0,0-2.65,1,14.33,14.33,0,0,0-1.47,1.09c-.86.7-1.72,1.37-2.55,2.1a8.09,8.09,0,0,1-2,1.41,12.38,12.38,0,0,1-6.83,1.06,26.61,26.61,0,0,1-6.49-1.69c-2.48-.92-4.89-2-7.33-3a72.6,72.6,0,0,0-7.54-2.71,38.19,38.19,0,0,0-9.06-1.5,16.63,16.63,0,0,0-5.4.53,38.45,38.45,0,0,0-5.45,2.54A34.51,34.51,0,0,1,83.11,8,20.75,20.75,0,0,1,81,8.52a21.83,21.83,0,0,0,3.18.2,19.33,19.33,0,0,0,4.07-.38A51.76,51.76,0,0,0,93.43,7c1.19-.37,2.35-.77,3.57-1.09a9,9,0,0,1,3.21-.36,5.38,5.38,0,0,1,2.22.77,3.56,3.56,0,0,1,1.33,1.33A3.2,3.2,0,0,1,104,9.38a3.12,3.12,0,0,1-.34,1.23,1.1,1.1,0,0,1-.66.55c-.06,0-.13,0-.14,0s0-.08,0-.12A.44.44,0,0,1,103,11a1.66,1.66,0,0,0,.4-1.21,2.83,2.83,0,0,0-1.14-2.1,4.92,4.92,0,0,0-3.09-1,12.89,12.89,0,0,0-3,.48c-1.4.34-2.8.68-4.2,1a36.33,36.33,0,0,1-4.68,1,23.13,23.13,0,0,1-4.91,0,32.34,32.34,0,0,1-3.85-.58,4.22,4.22,0,0,1-.91-.26,4.54,4.54,0,0,1-2.18-1.94A4.79,4.79,0,0,1,75,5.3a4.79,4.79,0,0,1-.45,1.13,4.54,4.54,0,0,1-2.18,1.94,4.22,4.22,0,0,1-.91.26,32.35,32.35,0,0,1-3.85.58,23.13,23.13,0,0,1-4.91,0,36.33,36.33,0,0,1-4.68-1c-1.4-.36-2.8-.7-4.2-1a12.89,12.89,0,0,0-3-.48,4.92,4.92,0,0,0-3.09,1,2.83,2.83,0,0,0-1.14,2.1A1.66,1.66,0,0,0,47,11a.44.44,0,0,1,.07.08s0,.1,0,.12-.08,0-.14,0a1.1,1.1,0,0,1-.66-.55A3.12,3.12,0,0,1,46,9.38a3.2,3.2,0,0,1,.29-1.74,3.56,3.56,0,0,1,1.33-1.33,5.38,5.38,0,0,1,2.22-.77A9,9,0,0,1,53,5.91c1.22.32,2.39.72,3.57,1.09a51.76,51.76,0,0,0,5.15,1.35,19.33,19.33,0,0,0,4.07.38A21.83,21.83,0,0,0,69,8.52,20.75,20.75,0,0,1,66.89,8a34.51,34.51,0,0,1-4.81-1.84,38.46,38.46,0,0,0-5.45-2.54,16.63,16.63,0,0,0-5.4-.53,38.19,38.19,0,0,0-9.06,1.5,72.6,72.6,0,0,0-7.54,2.71c-2.44,1-4.85,2.05-7.33,3a26.61,26.61,0,0,1-6.49,1.69A12.38,12.38,0,0,1,14,10.87a8.09,8.09,0,0,1-2-1.41c-.83-.73-1.69-1.4-2.55-2.1A14.33,14.33,0,0,0,7.94,6.26a8.12,8.12,0,0,0-2.65-1,4.13,4.13,0,0,0-2.92.22A2.31,2.31,0,0,0,1.19,7.23,1.88,1.88,0,0,0,2.23,9a1.73,1.73,0,0,0,1.64-.07L4,8.79s.11-.07.14-.05,0,.09,0,.15A.41.41,0,0,1,4,9.11a2.7,2.7,0,0,1-1.53.56A2.51,2.51,0,0,1,.37,8.73,2.55,2.55,0,0,1,.15,6.51,3.21,3.21,0,0,1,1.72,4.7a5.18,5.18,0,0,1,3.55-.17A10.33,10.33,0,0,1,8.21,5.76,10,10,0,0,1,9.7,6.85l.25.23.23.22a1,1,0,0,0,.23.17.25.25,0,0,0,.13,0,.11.11,0,0,0,.08-.06.35.35,0,0,0,0-.2,2.07,2.07,0,0,0-.08-.36,1.07,1.07,0,0,1,0-.14,6.13,6.13,0,0,1,.07-3.1A5.11,5.11,0,0,1,12.72.9a6,6,0,0,1,3-.89,5.35,5.35,0,0,1,2.8.58,4,4,0,0,1,1.26,1.06,5.82,5.82,0,0,1,.92,2.24.23.23,0,0,1,0,.17s-.07.09-.11.08-.06-.07-.08-.13l-.08-.26a4.63,4.63,0,0,0-.77-1.55A4.07,4.07,0,0,0,17.19.92a5.49,5.49,0,0,0-4,.59A4.68,4.68,0,0,0,11.31,4a4.21,4.21,0,0,0,0,2.75,5.15,5.15,0,0,0,2,2.24,10.86,10.86,0,0,0,5.4,1.76,16.15,16.15,0,0,0,5.83-.68A38.05,38.05,0,0,0,29,8.34,111.52,111.52,0,0,1,39.78,4.07a39.74,39.74,0,0,1,13-2.28,15.53,15.53,0,0,1,5.66,1,42.65,42.65,0,0,1,4.44,2.53A21.22,21.22,0,0,0,69.1,7.65a5.87,5.87,0,0,0,3.1,0,3.32,3.32,0,0,0,2.23-2A9.24,9.24,0,0,0,74.81,4l.05-.35a1.4,1.4,0,0,1,.05-.25c0-.09.06-.12.09-.12s.05,0,.09.12a1.45,1.45,0,0,1,.05.25c0,.12,0,.24.05.35a9.24,9.24,0,0,0,.39,1.63,3.32,3.32,0,0,0,2.23,2,5.87,5.87,0,0,0,3.1,0,21.22,21.22,0,0,0,6.17-2.32A42.64,42.64,0,0,1,91.51,2.8a15.53,15.53,0,0,1,5.66-1,39.74,39.74,0,0,1,13,2.28A111.52,111.52,0,0,1,121,8.34a38.05,38.05,0,0,0,4.42,1.77,16.15,16.15,0,0,0,5.83.68A10.86,10.86,0,0,0,136.68,9a5.15,5.15,0,0,0,2-2.24,4.21,4.21,0,0,0,0-2.75,4.68,4.68,0,0,0-1.91-2.53,5.49,5.49,0,0,0-4-.59,4.08,4.08,0,0,0-2.43,1.29,4.63,4.63,0,0,0-.77,1.55l-.08.26c0,.06,0,.12-.08.13s-.09,0-.11-.08a.23.23,0,0,1,0-.17,5.82,5.82,0,0,1,.92-2.24A4,4,0,0,1,131.51.59a5.35,5.35,0,0,1,2.8-.58,6,6,0,0,1,3,.89,5.11,5.11,0,0,1,2.11,2.74A6.13,6.13,0,0,1,139.46,6.74Z"/></g></g></svg>