<svg xmlns="http://www.w3.org/2000/svg" viewBox="0 0 142 53.96"><defs><style>.cls-1{fill:#ffd197;}</style></defs><title>Ресурс 3</title><g id="Слой_2" data-name="Слой 2"><g id="Слой_1-2" data-name="Слой 1"><path class="cls-1" d="M131.82,21.85a7.13,7.13,0,0,1-2.67,3.89,7.67,7.67,0,0,1-7.26.2,7.1,7.1,0,0,1-3.48-3.74,8.11,8.11,0,0,1,.12-6.22,7.7,7.7,0,0,1,4.55-4.08c2.64-.87,5.81-.25,8.34.9a16.35,16.35,0,0,1,7.27,6.73,21.59,21.59,0,0,1,3.24,9.18,21.48,21.48,0,0,1-5.75,16c-5.62,6-14.3,7.82-22.61,6.21-6.68-1.3-13.12-4.8-19-8.62C86.63,37.17,79.65,31.45,72.46,26c-5.73-4.36-11.59-8.57-18-11.67A51.58,51.58,0,0,0,43.52,10.4c-7.14-1.64-14.91-1.59-21.7,1.26a23.66,23.66,0,0,0-10.06,7.7,20.76,20.76,0,0,0-3.69,9.51,17.45,17.45,0,0,0,1.41,10,18.18,18.18,0,0,0,6.68,6.92,20.55,20.55,0,0,0,8,3.07,25.11,25.11,0,0,0,5.3.13,14.15,14.15,0,0,0,1.46-.17,1.22,1.22,0,0,0,.79-.33,1.07,1.07,0,0,0-.06-1,3.17,3.17,0,0,0-.77-.93,8.21,8.21,0,0,1-2.14-3.4,8.41,8.41,0,0,1,.93-6.58A8.5,8.5,0,0,1,33.89,33a8.7,8.7,0,0,1,7.77.67,9.53,9.53,0,0,1,3.88,7.06,11.37,11.37,0,0,1-4.44,9.57C35.38,55,25.86,54.72,17.94,52.07c-6-2-11-5.35-14.14-10.14C-.2,35.79-1,27.31,1.25,20.14a28.14,28.14,0,0,1,13.55-16C21.73.42,30.13-.56,38,.28A61.11,61.11,0,0,1,62.75,9,146,146,0,0,1,80.56,22.11c4.81,4,9.59,7.94,14.55,11.77a76.55,76.55,0,0,0,11.16,7.47,33.72,33.72,0,0,0,9.83,3.45c4.15.72,8.67.57,12.35-1.29a15.11,15.11,0,0,0,7.45-8.95,14.77,14.77,0,0,0,.44-7.16,13.47,13.47,0,0,0-2.07-4.95,4.57,4.57,0,0,0-.88-1,1.25,1.25,0,0,0-.59-.29.88.88,0,0,0-.77.25A1.28,1.28,0,0,0,131.82,21.85Z"/></g></g></svg>