<svg xmlns="http://www.w3.org/2000/svg" viewBox="0 0 142.29 54.07"><defs><style>.cls-1{fill:#ffd197;}</style></defs><title>Ресурс 2</title><g id="Слой_2" data-name="Слой 2"><g id="Слой_1-2" data-name="Слой 1"><path class="cls-1" d="M10.2,21.89a7.15,7.15,0,0,0,2.68,3.89,7.69,7.69,0,0,0,7.27.2,7.11,7.11,0,0,0,3.49-3.75A8.12,8.12,0,0,0,23.53,16,7.72,7.72,0,0,0,19,11.91c-2.64-.87-5.82-.25-8.35.9a16.38,16.38,0,0,0-7.29,6.75,21.64,21.64,0,0,0-3.25,9.2,21.53,21.53,0,0,0,5.76,16c5.63,6,14.33,7.84,22.65,6.22,6.69-1.3,13.15-4.81,19.07-8.64C55.49,37.24,62.48,31.52,69.68,26c5.74-4.37,11.62-8.59,18-11.7a51.69,51.69,0,0,1,11-3.92c7.16-1.64,14.94-1.59,21.74,1.26A23.71,23.71,0,0,1,130.5,19.4a20.8,20.8,0,0,1,3.7,9.53,17.49,17.49,0,0,1-1.42,10,18.22,18.22,0,0,1-6.7,6.93,20.6,20.6,0,0,1-8,3.07,25.16,25.16,0,0,1-5.31.13,14.17,14.17,0,0,1-1.47-.17,1.22,1.22,0,0,1-.8-.33,1.07,1.07,0,0,1,.06-1,3.17,3.17,0,0,1,.77-.93,8.23,8.23,0,0,0,2.14-3.41,8.43,8.43,0,0,0-.94-6.59,8.52,8.52,0,0,0-4.19-3.6,8.72,8.72,0,0,0-7.79.67,9.55,9.55,0,0,0-3.89,7.07,11.39,11.39,0,0,0,4.45,9.59c5.74,4.67,15.28,4.43,23.21,1.78,6-2,11-5.36,14.17-10.16,4-6.15,4.84-14.65,2.56-21.83a28.2,28.2,0,0,0-13.58-16C120.52.42,112.1-.56,104.17.28A61.24,61.24,0,0,0,79.41,9,146.33,146.33,0,0,0,61.56,22.16c-4.82,4-9.61,8-14.58,11.79A76.71,76.71,0,0,1,35.8,41.43,33.79,33.79,0,0,1,26,44.89c-4.16.73-8.68.57-12.38-1.29a15.14,15.14,0,0,1-7.46-9,14.8,14.8,0,0,1-.44-7.17,13.5,13.5,0,0,1,2.08-5,4.58,4.58,0,0,1,.89-1,1.26,1.26,0,0,1,.59-.3.88.88,0,0,1,.77.25A1.28,1.28,0,0,1,10.2,21.89Z"/></g></g></svg>