<?xml version="1.0" encoding="utf-8"?>
<!-- Generator: Adobe Illustrator 24.1.1, SVG Export Plug-In . SVG Version: 6.00 Build 0)  -->
<svg version="1.1" id="Layer_1" xmlns="http://www.w3.org/2000/svg" xmlns:xlink="http://www.w3.org/1999/xlink" x="0px" y="0px"
	 viewBox="0 0 113.39 85.04" style="enable-background:new 0 0 113.39 85.04;" xml:space="preserve">
<style type="text/css">
	.st0{fill-rule:evenodd;clip-rule:evenodd;fill:#FCD5A6;}
	.st1{fill-rule:evenodd;clip-rule:evenodd;fill:#4C251A;}
</style>
<path class="st0" d="M57.2,53.6H29.76c5.77,6.2,15.9,10.3,27.44,10.3c11.51,0,21.64-4.1,27.38-10.3H57.2z M57.2,19.55
	c-12.72,0-23.74,4.99-29.08,12.29H57.2h29.02C80.91,24.55,69.92,19.55,57.2,19.55z M1,31.84h3.06C10.63,15.46,31.92,3.45,57.2,3.45
	c25.22,0,46.51,12,53.09,28.39h2.11v10.67V53.6h-2.25c-6.75,16.19-27.93,28.01-52.94,28.01c-25.07,0-46.22-11.83-52.97-28.01H1
	V31.84z"/>
<path class="st1" d="M106.33,38.11c-0.32,0-0.61,0-0.92,0.03c-0.03,0.35-0.09,0.69-0.12,1.07c-0.06,0.58-0.12,1.21-0.12,1.85v0.63
	l1.15,0.03l2.02,0.09c-0.12,0.14-0.26,0.26-0.38,0.4c-0.06,0.06-0.12,0.12-0.17,0.17c-0.03,0.03-0.09,0.06-0.14,0.09l-0.06,0.06
	l-1.27,0.06l-1.13,0.06l-0.09,0.06l-0.14,3.61c0.32,0.06,0.66,0.09,0.98,0.14c0.12,0,0.23,0.03,0.38,0.03
	c0.17,0.03,0.38,0.03,0.55,0.03c0.32,0,0.63,0,0.95-0.03c0.12,0,0.23-0.03,0.35-0.06c0.06,0,0.12-0.03,0.2-0.06
	c0.09-0.03,0.17-0.09,0.26-0.12c0.09-0.06,0.14-0.12,0.2-0.14c0.06-0.06,0.12-0.12,0.14-0.17c0.06-0.06,0.09-0.14,0.14-0.2
	c0.03-0.09,0.09-0.17,0.12-0.26c0.2-0.38,0.4-0.72,0.61-1.07c0.17-0.29,0.35-0.55,0.55-0.84l0.29,0.72l-1.07,2.97h-3.29h-4.36
	c0.09-0.14,0.14-0.26,0.26-0.4c0.09-0.12,0.2-0.2,0.32-0.29l0.14-0.03c0.09-0.03,0.2-0.06,0.32-0.09c0.12,0,0.23-0.03,0.35-0.03
	c0.14-1.07,0.26-2.11,0.35-3.17c0.06-0.87,0.12-1.76,0.14-2.63c0.03-0.55,0.03-1.07,0.03-1.64v-0.63l-0.03-0.17L102,37.87l0.92-0.63
	c0.52,0,1.01,0.03,1.5,0.06c0.2,0.03,0.4,0.03,0.61,0.03c0.38,0,0.75-0.06,1.13-0.09l0.17-0.03c0.52-0.03,1.01-0.12,1.53-0.14
	c0.29-0.03,0.58-0.03,0.87,0.03c0.03,0.03,0.09,0.03,0.14,0.06c0.03,0,0.09,0.03,0.14,0.06c0.03,0.06,0.09,0.09,0.12,0.14
	c0.06,0.03,0.12,0.09,0.14,0.17c0.03,0.06,0.09,0.14,0.09,0.23c0.03,0.09,0.06,0.2,0.09,0.29c0,0.06,0,0.12-0.03,0.17
	c0,0.03-0.03,0.09-0.06,0.14l-0.03,0.09c-0.14,0.17-0.29,0.32-0.43,0.43c-0.14,0.14-0.32,0.23-0.46,0.35
	c-0.12-0.2-0.23-0.43-0.37-0.63c-0.09-0.14-0.17-0.26-0.32-0.38c-0.03-0.03-0.03-0.03-0.09-0.06c-0.17-0.06-0.4-0.06-0.61-0.06
	C106.82,38.08,106.59,38.08,106.33,38.11 M97.07,40.59v-1.45 M95.45,46.02v-0.66 M95.45,46.02c0-0.11-0.03-0.19-0.03-0.3
	c0-0.09,0-0.14,0-0.2c0.02-0.07,0.03-0.12,0.03-0.16v0v0v0v0v0v0v0v0v0v0v0v0v0v0v0c0.03-0.09,0.03-0.17,0.06-0.23
	c0.06-0.2,0.12-0.4,0.2-0.61c0.06-0.12,0.12-0.26,0.17-0.38L96,44.02c0.06-0.03,0.12-0.06,0.17-0.09c0.12-0.06,0.26-0.09,0.4-0.12
	l-0.06,0.52c0,0.14,0.03,0.29,0.06,0.43c0,0.12,0.03,0.23,0.09,0.35c0.03,0.12,0.09,0.23,0.14,0.35l0.06,0.09
	c0.06,0.09,0.14,0.2,0.2,0.29c0.09,0.09,0.17,0.17,0.26,0.26c0.03,0.03,0.06,0.06,0.12,0.09c0.14,0.12,0.29,0.2,0.46,0.26l0.09,0.03
	c0.06,0.03,0.09,0.03,0.14,0.06c0.17,0.03,0.35,0.03,0.52,0.03c0.12-0.03,0.23-0.03,0.35-0.06c0.09-0.06,0.17-0.09,0.29-0.14
	c0.06-0.03,0.14-0.06,0.2-0.12c0.03,0,0.03-0.03,0.06-0.03c0.06-0.06,0.12-0.12,0.17-0.14c0.09-0.09,0.17-0.17,0.26-0.29
	c0.06-0.06,0.09-0.12,0.12-0.17c0.06-0.06,0.09-0.14,0.12-0.2c0.03-0.06,0.06-0.14,0.06-0.2c0.03-0.09,0.06-0.14,0.06-0.23
	c0-0.06,0.03-0.14,0.03-0.23c0-0.2,0-0.43-0.03-0.63c-0.03-0.03-0.03-0.06-0.03-0.09c-0.06-0.14-0.14-0.26-0.23-0.38
	c-0.14-0.12-0.29-0.26-0.43-0.4c-0.03-0.06-0.09-0.12-0.14-0.14l-0.09-0.09c-0.35-0.26-0.72-0.49-1.07-0.75
	c-0.09-0.03-0.14-0.09-0.2-0.14c-0.03-0.03-0.06-0.03-0.09-0.06c-0.06-0.06-0.12-0.12-0.17-0.2c-0.09-0.09-0.17-0.17-0.26-0.29
	c-0.12-0.2-0.26-0.43-0.4-0.63l-0.14-0.35l-0.06-0.2l-0.03-0.17l0.06-1.01c0.02-0.02,0.03-0.04,0.03-0.07v0v0v0v0v0v0v0v0v0v0v0v0v0
	v0v0c0.03-0.09,0.09-0.17,0.12-0.29l0.17-0.35l0.29-0.4l0.32-0.38l0.17-0.14l0.14-0.12c0.09-0.09,0.2-0.14,0.29-0.2
	c0.14-0.06,0.26-0.12,0.4-0.17c0.12-0.06,0.23-0.09,0.32-0.12c0.09,0,0.14-0.03,0.2-0.03h0.03h0.92c0.09,0,0.14,0,0.2,0
	c0.12,0.03,0.2,0.06,0.32,0.12c0.09,0.06,0.2,0.12,0.29,0.17l0.09,0.09c0.06,0.06,0.14,0.14,0.2,0.23c0.09,0.14,0.14,0.26,0.23,0.4
	l-0.03,0.12c-0.06,0.2-0.12,0.4-0.2,0.58c-0.12,0.29-0.26,0.55-0.4,0.84l-0.55,0.09c0-0.12,0-0.26,0-0.4c0-0.09,0-0.14-0.03-0.2
	c0-0.09-0.03-0.14-0.06-0.2c-0.03-0.06-0.06-0.12-0.09-0.17c-0.03-0.06-0.06-0.12-0.09-0.14c-0.06-0.06-0.09-0.12-0.14-0.17
	c-0.09-0.06-0.14-0.12-0.23-0.17c-0.06-0.03-0.12-0.06-0.17-0.09c-0.06-0.03-0.12-0.03-0.2-0.06c-0.03,0-0.06,0-0.09,0
	c-0.17,0-0.35,0-0.49,0.06c-0.17,0.06-0.29,0.14-0.4,0.26c-0.09,0.06-0.14,0.14-0.17,0.2l-0.06,0.09c-0.09,0.17-0.14,0.35-0.17,0.55
	c0,0.12,0,0.23,0,0.35c0,0.09,0,0.14,0.03,0.23c0.03,0.09,0.06,0.17,0.09,0.26c0.06,0.12,0.12,0.2,0.17,0.29l0.06,0.09
	c0.14,0.17,0.32,0.35,0.52,0.52c0.14,0.09,0.29,0.17,0.43,0.26c0.2,0.12,0.4,0.2,0.61,0.32c0.12,0.06,0.23,0.12,0.32,0.17
	c0.09,0.06,0.14,0.09,0.2,0.14c0.09,0.09,0.17,0.14,0.26,0.23c0.06,0.06,0.09,0.12,0.14,0.17c0.06,0.09,0.09,0.14,0.14,0.2
	c0.12,0.2,0.26,0.43,0.38,0.66c0.03,0.03,0.03,0.09,0.06,0.14c0.06,0.14,0.12,0.32,0.14,0.49v0.12c0.03,0.2,0,0.4-0.03,0.63
	c-0.03,0.17-0.06,0.35-0.12,0.49c-0.03,0.2-0.12,0.35-0.17,0.52c-0.09,0.17-0.17,0.35-0.26,0.52c-0.12,0.17-0.23,0.32-0.35,0.49
	c-0.09,0.09-0.17,0.2-0.26,0.29c-0.12,0.09-0.23,0.2-0.35,0.29c-0.03,0.03-0.09,0.06-0.14,0.09c-0.14,0.09-0.32,0.17-0.46,0.23
	c-0.06,0-0.09,0-0.12,0.03c-0.29,0.06-0.55,0.12-0.84,0.14c-0.17,0.03-0.35,0.03-0.52,0.03c-0.09,0.03-0.17,0.03-0.26,0.03
	c-0.26,0-0.52,0-0.78,0h-0.03c-0.23-0.03-0.46-0.06-0.66-0.14c-0.09-0.03-0.17-0.06-0.23-0.12c-0.06-0.03-0.09-0.06-0.14-0.09
	c-0.09-0.09-0.14-0.17-0.23-0.26c-0.03-0.06-0.06-0.12-0.09-0.17c-0.06-0.09-0.12-0.2-0.14-0.29l-0.06-0.14
	c0-0.09-0.03-0.17-0.06-0.26v-0.01V46.02L95.45,46.02z M88.44,47.4v-1.21 M86.57,46.82c-0.12-0.12-0.23-0.29-0.32-0.46
	c-0.06-0.09-0.09-0.2-0.12-0.29c-0.03-0.12-0.03-0.2-0.06-0.32c0-0.29,0-0.55,0.03-0.84c0.03-0.89,0.12-1.76,0.17-2.65
	c0.06-0.55,0.09-1.1,0.09-1.64c0-0.23,0.03-0.43,0.03-0.66c0.03-0.32,0.06-0.58,0.09-0.89c0-0.09,0.03-0.17,0.03-0.26l-0.03-0.75
	c-0.35-0.06-0.72-0.14-1.07-0.17c-0.2-0.03-0.38-0.03-0.58-0.03l0.66-0.69h1.07h0.61h0.69h0.58h0.66c-0.09,0.12-0.17,0.26-0.29,0.38
	c-0.03,0.06-0.09,0.09-0.12,0.14c-0.09,0.06-0.17,0.12-0.26,0.14c-0.09,0.06-0.14,0.09-0.2,0.12c-0.14,0.63-0.23,1.27-0.32,1.88
	c-0.03,0.09-0.03,0.17-0.06,0.26c-0.03,0.32-0.06,0.63-0.09,0.95c-0.06,0.4-0.09,0.81-0.12,1.21c0,0.2-0.03,0.4-0.03,0.61
	c-0.03,0.61-0.03,1.18-0.03,1.79c0,0.03,0,0.09,0,0.14c0.03,0.23,0.06,0.43,0.14,0.63c0.06,0.09,0.09,0.17,0.12,0.23
	c0.03,0.03,0.06,0.06,0.06,0.09c0.06,0.09,0.12,0.14,0.17,0.23c0.06,0.06,0.12,0.09,0.17,0.14c0.06,0.03,0.12,0.06,0.17,0.09v0.03
	c0.09,0.03,0.14,0.06,0.2,0.06c0.09,0.03,0.14,0.03,0.23,0.06c0.12,0,0.23,0,0.35,0c0.14-0.03,0.29-0.06,0.4-0.09
	c0.32-0.09,0.63-0.2,0.95-0.35c0.12-0.03,0.23-0.09,0.35-0.14c0.26-0.14,0.49-0.26,0.75-0.43c0.12-0.06,0.23-0.14,0.29-0.26
	l0.03-0.03l0.2-1.5c0-0.43,0-0.87,0.03-1.3c0.03-0.63,0.09-1.3,0.14-1.93c0.06-0.63,0.09-1.27,0.09-1.9c0-0.14,0-0.32-0.03-0.46
	h-1.5h-0.06l0.06-0.03l0.92-0.75h0.78h1.59h0.46h0.75l-0.32,0.32l-0.12,0.12l-0.12,0.09l-0.14,0.09l-0.06,0.03l-0.12,0.03
	l-0.14,0.06c-0.09,0.03-0.14,0.03-0.2,0.03c-0.03,0.03-0.06,0.03-0.09,0.03c-0.17,1.33-0.35,2.65-0.43,3.98
	c-0.09,0.87-0.12,1.73-0.14,2.6c0,0.32,0,0.66,0,0.98c0,0.17,0,0.38,0.09,0.55c0.06,0.09,0.09,0.17,0.17,0.23c0.03,0,0.03,0,0.06,0
	c0.12,0.03,0.23,0.03,0.35,0.06h0.03c0.14,0.03,0.29,0.06,0.43,0.06c0.14,0.03,0.26,0.03,0.38,0.06c0.14,0,0.29,0,0.4,0h0.06
	l-0.06,0.03l-0.58,0.66c-0.06,0-0.12,0.03-0.2,0.06c-0.12,0.03-0.26,0.06-0.38,0.09l-0.09,0.03c-0.23,0.06-0.43,0.09-0.63,0.12
	c-0.14,0-0.29,0.03-0.43,0.03c-0.17,0-0.35,0-0.52-0.03c-0.09-0.03-0.2-0.03-0.29-0.06c-0.09-0.03-0.14-0.09-0.2-0.12
	c-0.06-0.06-0.12-0.12-0.14-0.17v-1.07c-0.17,0.14-0.35,0.29-0.55,0.43c-0.17,0.12-0.35,0.23-0.52,0.35H90.9
	c-0.17,0.09-0.35,0.17-0.49,0.26c-0.17,0.06-0.35,0.12-0.52,0.17c-0.09,0.03-0.17,0.06-0.26,0.06c-0.09,0.03-0.17,0.06-0.23,0.06
	c-0.12,0-0.23,0-0.35,0.03c-0.17,0-0.32,0-0.49,0.03h-0.12l-0.49-0.03c-0.03,0-0.06,0-0.09,0c-0.12,0-0.26,0-0.38-0.03
	c-0.12-0.03-0.2-0.06-0.32-0.12c-0.03,0-0.06,0-0.09-0.03c-0.06-0.03-0.09-0.06-0.14-0.06C86.8,47.05,86.68,46.93,86.57,46.82z
	 M78.17,47.4v-1.39 M77.48,39.58c-0.03,0.03-0.06,0.09-0.09,0.14c-0.09,0.14-0.14,0.32-0.2,0.46c-0.06,0.14-0.09,0.26-0.12,0.4
	c-0.06,0.2-0.12,0.4-0.14,0.61c-0.03,0.14-0.06,0.29-0.09,0.43c0,0.2-0.03,0.43-0.03,0.66c0,0.26,0,0.55,0,0.81
	c0,0.23,0.03,0.46,0.06,0.69c0.03,0.17,0.09,0.38,0.14,0.55c0.03,0.06,0.03,0.12,0.06,0.17c0.09,0.2,0.2,0.4,0.32,0.61
	c0.03,0.03,0.06,0.06,0.09,0.12c0.09,0.12,0.17,0.23,0.26,0.35c0.12,0.12,0.23,0.23,0.38,0.35c0.03,0.03,0.06,0.06,0.06,0.09
	c0.12,0.06,0.2,0.12,0.32,0.17c0.09,0.09,0.2,0.12,0.32,0.17c0.14,0.06,0.29,0.12,0.43,0.14c0.03,0,0.09,0,0.14,0.03
	c0.23,0.03,0.49,0.03,0.72,0c0.14-0.03,0.26-0.06,0.4-0.09c0.17-0.06,0.35-0.14,0.52-0.23c0.23-0.14,0.43-0.29,0.63-0.46
	c0.2-0.2,0.38-0.4,0.52-0.63c0.03-0.03,0.06-0.09,0.09-0.12c0.17-0.29,0.32-0.55,0.4-0.87c0.09-0.17,0.12-0.37,0.17-0.58
	c0.06-0.43,0.09-0.87,0.09-1.3c0.03-0.46,0-0.92,0-1.41c-0.03-0.17-0.03-0.35-0.06-0.49c-0.03-0.23-0.09-0.43-0.14-0.63
	c-0.06-0.14-0.14-0.29-0.23-0.46c-0.03-0.06-0.09-0.12-0.12-0.17c-0.17-0.26-0.4-0.46-0.63-0.69c-0.06-0.03-0.12-0.09-0.17-0.12
	c-0.12-0.12-0.26-0.2-0.4-0.26c-0.09-0.03-0.17-0.06-0.26-0.09c-0.09-0.03-0.17-0.06-0.26-0.09c-0.14-0.03-0.29-0.03-0.43-0.03
	h-0.12c-0.12-0.03-0.26,0-0.38,0c-0.12,0-0.23,0.03-0.35,0.03c-0.09,0.03-0.14,0.06-0.23,0.09c-0.09,0.03-0.14,0.06-0.23,0.09
	c-0.09,0.03-0.14,0.06-0.23,0.12c-0.06,0.03-0.14,0.09-0.2,0.14c-0.09,0.06-0.14,0.12-0.2,0.17c-0.06,0.03-0.09,0.06-0.12,0.09
	c0,0.03-0.03,0.06-0.06,0.12c-0.09,0.09-0.17,0.2-0.26,0.29c-0.09,0.12-0.17,0.23-0.23,0.38C77.57,39.4,77.51,39.49,77.48,39.58z
	 M75.55,44.97c-0.03-0.06-0.06-0.14-0.09-0.2c-0.06-0.2-0.12-0.4-0.14-0.61c-0.03-0.17-0.06-0.35-0.09-0.55
	c0-0.23-0.03-0.43-0.03-0.66c0.03-0.37,0.06-0.75,0.09-1.13c0.06-0.29,0.12-0.58,0.2-0.87c0.03-0.09,0.03-0.14,0.06-0.23
	c0.09-0.29,0.23-0.61,0.35-0.89c0.12-0.2,0.2-0.35,0.32-0.55l0.06-0.06c0.09-0.14,0.2-0.32,0.32-0.49h0.03
	c0.12-0.14,0.2-0.26,0.32-0.38c0.14-0.14,0.29-0.29,0.46-0.43c0.03-0.03,0.06-0.06,0.09-0.06c0.09-0.09,0.14-0.14,0.23-0.2
	c0.17-0.12,0.32-0.2,0.46-0.29c0.14-0.06,0.26-0.12,0.38-0.17c0.2-0.09,0.38-0.14,0.55-0.2c0.17-0.06,0.35-0.09,0.52-0.12
	c0.12-0.03,0.23-0.06,0.38-0.09c0.03,0,0.09,0,0.12,0c0.12,0,0.23,0,0.32-0.03c0.35,0,0.66,0.03,1.01,0.09
	c0.2,0.03,0.4,0.06,0.61,0.09c0.12,0,0.2,0.03,0.32,0.06c0.06,0,0.14,0.03,0.2,0.06c0.12,0.06,0.23,0.09,0.35,0.17
	c0.06,0.03,0.12,0.06,0.2,0.12c0.09,0.09,0.17,0.17,0.29,0.26c0.06,0.06,0.12,0.12,0.14,0.17c0.09,0.12,0.17,0.23,0.26,0.35
	c0.06,0.12,0.14,0.26,0.2,0.4c0.09,0.14,0.14,0.29,0.2,0.46c0.06,0.14,0.09,0.32,0.14,0.46c0.06,0.2,0.09,0.43,0.12,0.66
	c0.03,0.23,0.06,0.43,0.06,0.66c0.03,0.72,0,1.47-0.14,2.19c-0.03,0.12-0.06,0.2-0.09,0.32c-0.09,0.32-0.2,0.63-0.32,0.92
	c-0.12,0.26-0.23,0.49-0.35,0.72c-0.09,0.17-0.2,0.35-0.32,0.49c-0.09,0.17-0.23,0.32-0.35,0.46c-0.09,0.12-0.2,0.2-0.32,0.32
	c-0.14,0.12-0.32,0.26-0.46,0.38l-0.14,0.09c-0.4,0.26-0.84,0.46-1.3,0.61c-0.12,0.06-0.26,0.09-0.38,0.12
	c-0.09,0-0.17,0.03-0.26,0.03c-0.17,0.03-0.38,0.06-0.55,0.09c-0.26,0-0.52,0.03-0.75,0c-0.17,0-0.32-0.03-0.49-0.06
	c-0.03,0-0.09-0.03-0.14-0.03V47.4c-0.2-0.06-0.4-0.12-0.61-0.2c-0.03-0.03-0.06-0.03-0.09-0.06c-0.09-0.06-0.2-0.09-0.29-0.14
	c-0.12-0.09-0.23-0.14-0.35-0.23c-0.06-0.06-0.14-0.14-0.23-0.2c-0.14-0.12-0.26-0.26-0.35-0.38l-0.06-0.06
	c-0.06-0.06-0.12-0.14-0.14-0.2c-0.12-0.14-0.2-0.29-0.29-0.46c-0.09-0.14-0.14-0.29-0.2-0.46L75.55,44.97z M64.44,47.19H64.3
	l0.14-0.26l0.03-0.06l0.06-0.06l0.06-0.06l0.06-0.06l0.06-0.06l0.09-0.06l0.06-0.03l0.14-0.06c0.12-0.06,0.23-0.09,0.35-0.12
	c0.14,0,0.26-0.03,0.4-0.03c0-0.75,0.03-1.5,0.09-2.22c0.06-0.61,0.12-1.21,0.14-1.82c0.12-1.21,0.2-2.39,0.26-3.58
	c0.03-0.23,0.03-0.49,0.03-0.75l-0.14,0.06c-0.09,0-0.17-0.03-0.29-0.03c-0.2-0.03-0.4-0.09-0.61-0.12c-0.2-0.06-0.4-0.12-0.61-0.14
	l0.84-0.58h1.73h2.28c-0.26,0.2-0.52,0.43-0.81,0.61c-0.14,0.09-0.29,0.14-0.43,0.2l-0.12,0.06l-0.32-0.06l-0.03,0.03l-0.2,2.89
	l-0.03,0.12c0,0.12,0.06,0.23,0.12,0.35c0.12,0.03,0.23,0.03,0.35,0.06c0.29,0,0.58,0.03,0.84,0.06h1.47l1.41-0.06l0.09-0.98
	l0.03-0.69l0.06-1.7l-0.26-0.03c-0.2,0-0.38-0.03-0.58-0.06h-0.69l0.95-0.78h2.08h1.07h0.52c-0.14,0.2-0.26,0.4-0.38,0.61
	l-0.06,0.06l-0.06,0.06h-0.03l-0.03,0.03l-0.06,0.03l-0.09,0.03l-0.06,0.03h-0.06c-0.09,0.03-0.17,0.03-0.29,0.03
	c-0.12,0-0.26,0.03-0.38,0.09l-0.12,1.93l-0.38,6.29c0.12,0,0.26,0,0.38,0c0.09,0.03,0.2,0.03,0.29,0.06c0.12,0,0.23,0.06,0.35,0.09
	c0.14,0.03,0.29,0.09,0.43,0.12l-0.72,0.58h-0.35h-3.55l0.61-0.66l0.98-0.14c0.06-0.43,0.09-0.89,0.12-1.33
	c0.06-0.75,0.12-1.47,0.14-2.22c0-0.12,0-0.2,0-0.32c0-0.06-0.03-0.12-0.06-0.17c0,0,0-0.03-0.03-0.06c-0.63,0-1.3,0-1.96,0
	c-0.69,0.03-1.41,0.06-2.11,0.09c-0.03,0.12-0.06,0.2-0.09,0.32c0,0.52,0,1.04-0.03,1.59c-0.03,0.63-0.06,1.27-0.09,1.93
	c0,0.03,0,0.06,0,0.12l1.53,0.26l-0.66,0.61h-1.01H64.44z M55.47,47.97c-0.2,0.09-0.43,0.17-0.69,0.23
	c-0.63-0.17-1.21-0.46-1.73-0.84c0.84,0.03,1.64,0.06,2.42,0.14c0.26,0.03,0.49,0.06,0.72,0.09C55.96,47.74,55.73,47.86,55.47,47.97
	z M51.74,46.96c-0.26-0.29-0.52-0.61-0.75-0.98c-0.46-0.75-0.84-1.56-1.07-2.48c-0.23-0.89-0.35-1.9-0.35-2.97
	c0-0.4,0.03-0.78,0.09-1.15c0.09-0.38,0.2-0.75,0.35-1.13c0.12-0.29,0.26-0.55,0.4-0.78c0.14-0.23,0.29-0.43,0.46-0.61l0.17-0.17
	l0.17,0.14c0.17,0.12,0.35,0.2,0.52,0.32c0.14,0.06,0.29,0.12,0.46,0.17c0.29,0.12,0.61,0.17,0.92,0.17c0.29,0,0.55-0.06,0.81-0.14
	c0.23-0.12,0.46-0.26,0.64-0.46l0.2-0.23l0.2,0.23c0.17,0.14,0.32,0.29,0.49,0.38c0.06,0.03,0.12,0.06,0.17,0.09
	c0.23,0.09,0.52,0.14,0.81,0.14c0.26,0,0.49-0.03,0.75-0.12c0.06,0,0.12-0.03,0.17-0.06c0.14-0.06,0.32-0.12,0.46-0.2
	c0.17-0.09,0.35-0.17,0.49-0.29l0.2-0.14l0.17,0.17c0.17,0.17,0.32,0.38,0.46,0.61c0.14,0.23,0.26,0.49,0.38,0.78
	c0.17,0.38,0.29,0.75,0.35,1.13c0.09,0.38,0.12,0.75,0.12,1.15c0,1.07-0.12,2.08-0.35,2.97c-0.23,0.92-0.61,1.73-1.07,2.48h-0.03
	c-0.12,0.2-0.26,0.4-0.38,0.58c-0.12,0.14-0.23,0.26-0.35,0.38c-0.03,0.06-0.06,0.09-0.12,0.14c-0.17,0.17-0.35,0.35-0.52,0.49
	c-0.52,0.43-1.1,0.75-1.73,1.01c-0.2,0.06-0.4,0.14-0.61,0.2h-0.09h-0.06c-0.78-0.23-1.47-0.55-2.11-1.01
	C52.32,47.54,52.03,47.25,51.74,46.96z M51.74,41.8l-0.35,0.23l0.14,0.23l0.2-0.14l2.14-1.36l-1.15,6.38
	c-0.35-0.32-0.69-0.66-0.98-1.04c-0.09-0.14-0.17-0.26-0.29-0.4c-0.43-0.69-0.78-1.47-0.98-2.34c-0.23-0.87-0.35-1.79-0.35-2.83
	c0-0.38,0.03-0.72,0.12-1.04c0.06-0.35,0.14-0.69,0.29-1.01c0.12-0.26,0.23-0.49,0.35-0.69c0.09-0.14,0.17-0.26,0.26-0.35
	c0.2,0.12,0.4,0.23,0.61,0.32c0.09,0.03,0.17,0.06,0.26,0.09c0.38,0.14,0.75,0.2,1.13,0.2c0.38,0,0.69-0.06,1.01-0.2
	c0.23-0.09,0.46-0.2,0.63-0.37c0.2,0.17,0.4,0.29,0.63,0.37l0.06,0.03c0.32,0.12,0.64,0.17,0.98,0.17c0.26,0,0.49-0.03,0.75-0.09
	c0.12-0.03,0.23-0.06,0.35-0.12c0.12-0.03,0.2-0.06,0.29-0.09c0.2-0.09,0.4-0.2,0.61-0.32c0.09,0.09,0.17,0.2,0.23,0.35
	c0.14,0.2,0.26,0.43,0.35,0.69c0.14,0.32,0.26,0.66,0.32,1.01c0.09,0.32,0.12,0.66,0.12,1.04c0,1.04-0.12,1.96-0.35,2.83
	c-0.23,0.87-0.55,1.64-1.01,2.34c-0.09,0.12-0.17,0.26-0.26,0.38c-0.03,0.06-0.06,0.09-0.12,0.14c-0.12,0.17-0.26,0.32-0.4,0.46
	c-0.03,0.06-0.09,0.12-0.12,0.14c-0.23,0.2-0.46,0.4-0.69,0.58l-0.87-6.58l1.56,1.04l0.55,0.38l0.09-0.14L57.89,42l-0.06-0.03
	l-0.63-0.46l-1.62-1.07l-0.09-0.63h-0.03h-0.09l0.09-0.06l1.73-1.07l0.63-0.43l0.55-0.35l-0.14-0.23l-0.4,0.26l-0.63,0.4l-1.73,1.1
	l-0.61,0.38h-0.23l-2.89-1.9l-0.46-0.32l-0.14,0.23l0.61,0.43l2.37,1.56h-0.06l-0.12,0.58L51.74,41.8z M45.69,47.6v-1.44
	 M41.56,39.75c-0.29,0.66-0.58,1.33-0.87,1.96c-0.09,0.26-0.2,0.49-0.32,0.72c0.38,0,0.78,0.09,1.15,0.09h0.03
	c0.09,0,0.2,0,0.29-0.03c0.32,0,0.61-0.06,0.89-0.06L41.94,39c-0.12,0.23-0.23,0.46-0.35,0.69L41.56,39.75z M36.92,47.22H36.6
	l-0.12-0.14l-0.06-0.06v-0.09l-0.03-0.09l0.03-0.06l0.03-0.09l0.06-0.06l0.06-0.06c0.06-0.03,0.12-0.06,0.17-0.09
	c0.06-0.03,0.12-0.06,0.17-0.09c0.03,0,0.09-0.03,0.14-0.03c0.03,0,0.06-0.03,0.12-0.03h0.06c0.2-0.35,0.4-0.69,0.58-1.01
	c0.14-0.26,0.26-0.49,0.4-0.72c0.38-0.69,0.75-1.41,1.1-2.11c0.2-0.35,0.38-0.72,0.58-1.1c0.58-1.18,1.12-2.34,1.67-3.55l0.12-0.26
	l0.09-0.2l1.15-0.46l0.12,0.49c0.17,0.84,0.35,1.67,0.52,2.45l0.06,0.17c0.2,0.84,0.4,1.67,0.63,2.51c0.14,0.46,0.32,0.92,0.46,1.38
	c0.14,0.4,0.32,0.78,0.46,1.15c0.09,0.2,0.17,0.4,0.26,0.61c0.06,0.17,0.14,0.32,0.26,0.43v0.03c0.12,0.09,0.2,0.17,0.32,0.2
	c0.23,0.12,0.49,0.14,0.75,0.14h0.69l-0.43,0.61c-0.17,0.09-0.32,0.17-0.43,0.29c-0.09,0.03-0.14,0.06-0.23,0.09
	c-0.06,0.03-0.14,0.06-0.2,0.06l-0.12,0.03c-0.12,0.03-0.23,0.03-0.35,0c-0.12,0-0.23,0-0.35-0.03c-0.23-0.03-0.46-0.09-0.72-0.14
	c-0.03,0-0.06-0.03-0.09-0.03c-0.03-0.03-0.09-0.06-0.14-0.06l-0.09-0.09l-0.12-0.09c-0.03-0.06-0.06-0.12-0.09-0.14
	c-0.12-0.2-0.2-0.4-0.26-0.63c-0.09-0.26-0.17-0.52-0.23-0.78c-0.09-0.29-0.17-0.58-0.23-0.87l-0.35-1.41l-0.06-0.2l-0.03-0.06
	l-1.21,0.17h-0.17l-1.1,0.09h-0.49l-0.29,0.43c-0.26,0.58-0.52,1.15-0.75,1.73c-0.14,0.29-0.26,0.58-0.38,0.89l1.38,0.09l0.14,0.26
	l-0.63,0.49h-1.24h-0.4H36.92z M32.96,56.14c0.26,0.2,0.55,0.4,0.81,0.61c0.2,0.14,0.4,0.29,0.61,0.43c0.14,0.09,0.29,0.2,0.43,0.29
	c0.35,0.23,0.69,0.43,1.04,0.66c0.35,0.2,0.69,0.4,1.07,0.61c0.29,0.14,0.61,0.32,0.89,0.46c0.14,0.09,0.26,0.14,0.4,0.2
	c1.07,0.55,2.19,1.04,3.35,1.47c0.49,0.17,0.98,0.35,1.47,0.52c0.17,0.06,0.37,0.14,0.58,0.2c0.66,0.2,1.36,0.4,2.08,0.58
	c0.61,0.17,1.24,0.32,1.88,0.46c1.36,0.29,2.77,0.52,4.18,0.69c1.24,0.14,2.48,0.23,3.72,0.26c0.58,0.03,1.15,0.06,1.73,0.06
	c0.2,0,0.43-0.03,0.63-0.03c1.3,0,2.57-0.09,3.81-0.2c0.95-0.09,1.88-0.2,2.8-0.35c0.92-0.14,1.85-0.32,2.74-0.52
	c2.19-0.49,4.24-1.12,6.2-1.88c0.35-0.14,0.72-0.32,1.07-0.46c0.38-0.17,0.75-0.32,1.1-0.49c0.23-0.12,0.46-0.23,0.66-0.35
	c0.14-0.06,0.29-0.12,0.4-0.2c0.29-0.14,0.58-0.29,0.87-0.43c0.23-0.14,0.49-0.29,0.69-0.43c0.64-0.35,1.21-0.75,1.79-1.13
	l0.14-0.09c1.41-0.98,2.71-2.08,3.84-3.2h-3.84h-1.93h-0.69h-0.87h-0.4h-0.66h-1.1h-1.07h-6.2h-2.74h-2.8h-3.81H57.2h-1.73h-3.72
	h-4.18h-1.88h-2.08h-0.58h-1.47h-3.35h-0.4h-0.89h-1.07h-1.04h-1.04h-0.81h-2.57C31.2,54.67,32.04,55.42,32.96,56.14z M29.53,31.56
	h3.43h0.81h1.04h1.04h1.07h0.89h0.4h3.35h1.47h0.58h2.08h1.88h4.18h3.72h1.73h0.63h3.81h2.8h2.74h6.2h1.07h1.1h0.66h0.4h0.87h0.69
	h1.93h4.65h0.92c-0.29-0.38-0.61-0.75-0.92-1.13c-1.33-1.47-2.89-2.83-4.65-4.04l-0.14-0.12c-0.58-0.38-1.15-0.75-1.79-1.13
	c-0.2-0.14-0.46-0.29-0.69-0.4c-0.29-0.17-0.58-0.32-0.87-0.46c-0.12-0.09-0.26-0.14-0.4-0.2c-0.2-0.12-0.43-0.23-0.66-0.35
	c-0.35-0.17-0.72-0.32-1.1-0.49c-0.35-0.14-0.72-0.29-1.07-0.43c-1.96-0.78-4.01-1.41-6.2-1.9c-0.89-0.2-1.82-0.37-2.74-0.52
	c-0.92-0.14-1.85-0.26-2.8-0.35c-1.24-0.12-2.51-0.2-3.81-0.2c-0.2,0-0.43,0-0.63,0c-0.58,0-1.15,0-1.73,0.03
	c-1.24,0.03-2.48,0.14-3.72,0.26c-1.41,0.17-2.83,0.4-4.18,0.69c-0.63,0.14-1.27,0.29-1.88,0.46c-0.72,0.17-1.41,0.38-2.08,0.61
	c-0.2,0.06-0.4,0.12-0.58,0.17c-0.49,0.17-0.98,0.35-1.47,0.52c-1.15,0.43-2.28,0.92-3.35,1.47c-0.14,0.06-0.26,0.12-0.4,0.2
	c-0.29,0.14-0.61,0.32-0.89,0.46c-0.38,0.2-0.72,0.4-1.07,0.63c-0.35,0.2-0.69,0.43-1.04,0.63c-0.14,0.12-0.29,0.2-0.43,0.29
	c-0.2,0.14-0.4,0.29-0.61,0.43c-0.26,0.2-0.55,0.4-0.81,0.61c-1.27,0.98-2.42,2.08-3.43,3.2c-0.29,0.35-0.58,0.69-0.87,1.04H29.53z
	 M29.53,44.34l-0.81,1.04l0.4-0.03l0.4,0.03h0.12c0.66,0.06,1.36,0.2,2.05,0.32l1.27,0.14l0.12,0.03h0.52
	c0.06,0,0.12-0.03,0.17-0.03c0.09,0,0.14,0,0.23-0.03c0.17-0.03,0.32-0.09,0.49-0.12c0.12-0.06,0.23-0.09,0.32-0.14
	c0.06-0.03,0.12-0.06,0.17-0.09c0.12-0.06,0.23-0.14,0.38-0.2c0.17-0.14,0.32-0.26,0.49-0.4c0.14-0.12,0.26-0.23,0.4-0.32v0.81
	c-0.14,0.2-0.26,0.4-0.4,0.61c-0.06,0.09-0.12,0.14-0.17,0.23c-0.12,0.14-0.23,0.29-0.35,0.4c-0.09,0.09-0.17,0.17-0.23,0.26
	c-0.09,0.09-0.17,0.14-0.26,0.23h-0.03c-0.06,0.06-0.14,0.12-0.2,0.14l-0.17,0.12l-0.12,0.03c-0.17,0.09-0.35,0.14-0.55,0.17
	c-0.06,0-0.12,0.03-0.2,0.03c-0.2,0.03-0.4,0.06-0.61,0.06h-0.03c-0.43-0.03-0.84-0.06-1.24-0.14c-0.09,0-0.2-0.03-0.29-0.06
	c-0.63-0.12-1.24-0.26-1.88-0.37l-0.23-0.03c-0.06-0.03-0.09-0.03-0.12-0.03h-0.84c-0.17,0-0.38,0.03-0.55,0.06
	c-0.17,0.03-0.32,0.06-0.46,0.12l-0.09,0.06c-0.12,0.09-0.2,0.17-0.32,0.26c-0.09,0.12-0.17,0.2-0.26,0.32l-0.14-0.23l-0.06-0.12
	l-0.03-0.12l-0.03-0.14v-0.09l0.06-0.17l0.09-0.06c0.98-1.41,1.96-2.83,2.97-4.21l0.03-0.03c1.01-1.38,2.05-2.77,3.12-4.1
	c-0.09-0.03-0.17-0.03-0.26-0.03c-0.55-0.06-1.13-0.12-1.67-0.12c-0.4,0-0.81,0-1.21,0.06h-0.09c-0.14,0.03-0.29,0.06-0.43,0.12
	c-0.12,0.03-0.26,0.09-0.38,0.14c-0.06,0.03-0.12,0.09-0.2,0.12c-0.03,0-0.06,0.03-0.09,0.06c-0.14,0.14-0.2,0.32-0.29,0.49
	c-0.03,0.14-0.09,0.29-0.14,0.43c-0.06,0.23-0.09,0.46-0.14,0.69c-0.12-0.03-0.23-0.09-0.35-0.12c-0.06-0.03-0.09-0.09-0.14-0.12
	l-0.14-0.12l0.69-2.83c0.06-0.03,0.12-0.09,0.2-0.12c0.09-0.06,0.17-0.09,0.26-0.14c0.23-0.03,0.46-0.09,0.72-0.12
	c0.17-0.03,0.35-0.06,0.52-0.06c0.2,0,0.4-0.03,0.58-0.03c0.46,0,0.92,0.06,1.36,0.09c0.52,0.06,1.01,0.12,1.5,0.17
	c0.12,0,0.2,0.03,0.32,0.03c0.17,0,0.32,0.03,0.49,0.03c0.17,0,0.29-0.09,0.43-0.14c0.06-0.03,0.09-0.06,0.14-0.12l0.35-0.26
	c-0.03,0.23-0.06,0.43-0.09,0.63c-0.03,0.12-0.03,0.2-0.09,0.29c-0.09,0.23-0.17,0.46-0.29,0.69c-0.12,0.23-0.23,0.46-0.35,0.69
	l-0.12,0.17l-0.35,0.55l-0.46,0.61l-0.09,0.12c-0.09,0.14-0.2,0.26-0.29,0.4l-2.02,2.31l-0.75,0.87L29.53,44.34z M18.13,46.99
	c-0.12,0.03-0.2,0.03-0.29,0.06c-0.14,0.03-0.29,0.06-0.4,0.12c-0.12,0.03-0.17,0.09-0.26,0.14c-0.09,0.06-0.14,0.12-0.2,0.17
	c-0.09,0.12-0.17,0.2-0.26,0.32l-0.14-0.23l-0.06-0.12l-0.03-0.12l-0.03-0.14v-0.03v-0.06l0.06-0.17l0.09-0.06
	c0.49-0.72,1.01-1.47,1.53-2.19l0.29-0.43c0.35-0.46,0.69-0.92,1.01-1.39l0.17-0.23c0.49-0.69,1.01-1.38,1.5-2.05
	c0.46-0.61,0.92-1.15,1.36-1.76l0.26-0.29c-0.09,0-0.17-0.03-0.26-0.03c-0.46-0.06-0.89-0.09-1.36-0.12c-0.12,0-0.23,0-0.35,0
	c-0.4,0-0.84,0-1.27,0.06l-0.06,0.03c-0.12,0.03-0.23,0.06-0.38,0.09c-0.12,0.03-0.26,0.09-0.37,0.14c-0.06,0.03-0.12,0.09-0.2,0.12
	c-0.03,0-0.03,0-0.06,0c0,0.03-0.03,0.03-0.03,0.06c-0.12,0.14-0.2,0.32-0.26,0.46l-0.03,0.03c-0.06,0.2-0.14,0.4-0.2,0.63
	c-0.03,0.17-0.06,0.32-0.09,0.49c-0.12-0.03-0.23-0.09-0.35-0.12c-0.06-0.03-0.09-0.09-0.14-0.12l-0.14-0.12l0.69-2.83
	c0.06-0.03,0.12-0.09,0.2-0.12l0.06-0.03c0.06-0.03,0.12-0.09,0.2-0.12c0.03,0,0.06,0,0.09,0c0.23-0.06,0.43-0.09,0.63-0.12
	c0.12-0.03,0.26-0.03,0.38-0.06c0.26,0,0.49-0.03,0.72-0.03c0.32,0,0.63,0.03,0.95,0.06c0.14,0,0.26,0.03,0.4,0.03
	c0.32,0.06,0.63,0.09,0.95,0.12c0.29,0.03,0.58,0.06,0.87,0.09c0.14,0,0.26,0.03,0.4,0.03c0.03,0,0.06,0,0.09,0l0.43-0.14l0.14-0.12
	l0.35-0.26c-0.03,0.23-0.06,0.43-0.09,0.63c-0.03,0.12-0.06,0.2-0.09,0.29l-0.29,0.69c-0.12,0.23-0.23,0.46-0.35,0.69
	c-0.09,0.12-0.14,0.2-0.2,0.32c-0.09,0.14-0.17,0.29-0.26,0.4l-0.55,0.72l-0.32,0.4l-0.14,0.17c-0.43,0.52-0.89,1.07-1.36,1.59
	l-0.49,0.55c-0.26,0.29-0.52,0.58-0.75,0.87c-0.14,0.17-0.29,0.35-0.43,0.52c-0.23,0.29-0.46,0.58-0.69,0.87l0.43-0.03
	c0.09,0,0.17,0,0.26,0.03c0.09,0,0.17,0,0.23,0c0.49,0.06,0.98,0.12,1.44,0.2c0.2,0.03,0.43,0.09,0.63,0.12
	c0.23,0.06,0.49,0.09,0.72,0.12c0.23,0.03,0.43,0.06,0.66,0.06c0.17,0,0.35,0,0.52,0l0.09-0.03c0.12,0,0.2,0,0.32-0.03
	c0.14-0.03,0.32-0.09,0.49-0.12c0.12-0.06,0.2-0.09,0.32-0.14c0.06-0.03,0.12-0.06,0.17-0.09c0.12-0.06,0.23-0.14,0.35-0.2
	c0.09-0.06,0.17-0.12,0.23-0.17c0.23-0.17,0.46-0.38,0.69-0.55v0.81c-0.17,0.29-0.38,0.55-0.55,0.81l-0.14,0.17l-0.06,0.09
	c-0.09,0.09-0.17,0.17-0.26,0.26c-0.09,0.09-0.14,0.17-0.23,0.26c-0.09,0.06-0.14,0.12-0.2,0.14l-0.06,0.06
	c-0.09,0.06-0.14,0.09-0.23,0.14c-0.06,0.03-0.14,0.06-0.2,0.09c-0.2,0.09-0.4,0.14-0.63,0.17l-0.03,0.03
	c-0.23,0.03-0.49,0.06-0.72,0.06c-0.17,0-0.35-0.03-0.52-0.03c-0.23-0.03-0.49-0.06-0.72-0.12c-0.12,0-0.2-0.03-0.29-0.06
	l-0.35-0.06c-0.55-0.12-1.1-0.23-1.67-0.35h-0.12c-0.03-0.03-0.06-0.03-0.09-0.03h-0.81h-0.03C18.31,46.99,18.22,46.99,18.13,46.99z
	 M15.13,38.05c-0.12,0-0.23,0.03-0.38,0.03c-0.14,1.24-0.29,2.45-0.4,3.66c-0.09,0.69-0.12,1.36-0.14,2.05c0,0.38-0.03,0.78,0,1.15
	c0,0.49,0.03,0.95,0.06,1.41l0.87,0.12L16,46.59l-0.75,0.61h-0.12h-4.27l0.29-0.35c0.09-0.06,0.14-0.12,0.2-0.17
	c0.09-0.03,0.14-0.09,0.23-0.12c0.06-0.06,0.14-0.09,0.23-0.12c0.06-0.03,0.14-0.06,0.23-0.06c0.09-0.03,0.2-0.06,0.29-0.06h0.29
	c0.17-1.47,0.32-2.91,0.43-4.39c0.06-0.84,0.12-1.67,0.14-2.51c0-0.43,0-0.89,0-1.36l-1.56-0.32l0.43-0.26
	c0.17-0.12,0.38-0.2,0.55-0.29l0.12-0.03h2.39h1.1h0.23l-0.23,0.26l-0.06,0.06c-0.12,0.12-0.26,0.23-0.38,0.35
	c-0.06,0.03-0.12,0.09-0.2,0.12l-0.12,0.03C15.36,38.02,15.25,38.02,15.13,38.05z M6.65,53.31h8.48h1.1h0.23h1.67h0.29h1.01h1.67
	h1.36h1.27h1.13h0.75h3.92h3.43h0.81h1.04h1.04h1.07h0.89h0.4h3.35h1.47h0.58h2.08h1.88h4.18h3.72h1.73h0.63h3.81h2.8h2.74h6.2h1.07
	h1.1h0.66h0.4h0.87h0.69h1.93h4.65h1.82h0.61h0.69h0.58h1.18h1.3h1.7h1.59h0.46h0.78h1.62h1.07h1.36h6.84h5.77V32.13h-5.77h-6.84
	h-1.36h-1.07h-1.62h-0.78h-0.46h-1.59h-1.7h-1.3h-1.18h-0.58h-0.69h-0.61h-1.82h-4.65h-1.93h-0.69h-0.87h-0.4h-0.66h-1.1h-1.07h-6.2
	h-2.74h-2.8h-3.81H57.2h-1.73h-3.72h-4.18h-1.88h-2.08h-0.58h-1.47h-3.35h-0.4h-0.89h-1.07h-1.04h-1.04h-0.81h-3.43h-3.92h-0.75
	h-1.13h-1.27H21.1h-1.67h-1.01h-0.29h-1.67h-0.23h-1.1H6.65h-5.4v21.18H6.65z M6.65,57.78c2.16,3.55,5.02,6.81,8.48,9.72
	c0.38,0.29,0.72,0.58,1.1,0.87c0.06,0.06,0.14,0.12,0.23,0.2c0.55,0.4,1.1,0.84,1.67,1.24l0.17,0.12c0.03,0.03,0.09,0.06,0.12,0.09
	c0.35,0.23,0.66,0.46,1.01,0.69c0.55,0.38,1.13,0.72,1.67,1.07c0.46,0.29,0.92,0.55,1.36,0.81c0.43,0.26,0.84,0.49,1.27,0.72
	c0.38,0.2,0.75,0.4,1.13,0.58c0.26,0.14,0.49,0.26,0.75,0.4c1.27,0.61,2.6,1.21,3.92,1.76c1.13,0.46,2.28,0.89,3.43,1.3
	c0.29,0.12,0.55,0.2,0.81,0.29c0.35,0.12,0.69,0.23,1.04,0.35c0.35,0.09,0.69,0.2,1.04,0.32c0.35,0.09,0.72,0.2,1.07,0.29
	c0.29,0.09,0.61,0.17,0.89,0.26c0.14,0.03,0.26,0.06,0.4,0.09c1.1,0.29,2.22,0.55,3.35,0.81c0.49,0.09,0.98,0.2,1.47,0.29
	c0.17,0.03,0.37,0.06,0.58,0.09c0.66,0.14,1.36,0.26,2.08,0.35c0.61,0.12,1.24,0.2,1.88,0.26c1.38,0.17,2.77,0.32,4.18,0.4
	c1.24,0.09,2.48,0.14,3.72,0.17c0.58,0.03,1.15,0.03,1.73,0.03c0.2,0,0.43,0,0.63,0c1.3-0.03,2.57-0.06,3.81-0.14
	c0.95-0.03,1.88-0.12,2.8-0.2c0.92-0.09,1.85-0.17,2.74-0.29c2.11-0.29,4.18-0.64,6.2-1.1c0.35-0.06,0.72-0.14,1.07-0.23
	c0.38-0.09,0.72-0.17,1.1-0.26c0.23-0.06,0.46-0.12,0.66-0.17c0.14-0.03,0.29-0.06,0.4-0.12c0.29-0.06,0.58-0.14,0.87-0.23
	c0.23-0.06,0.49-0.14,0.69-0.2c0.66-0.2,1.3-0.4,1.93-0.61c1.59-0.52,3.14-1.07,4.65-1.7c0.61-0.26,1.21-0.52,1.82-0.78
	c0.2-0.09,0.4-0.17,0.61-0.29c0.23-0.09,0.46-0.2,0.69-0.32c0.2-0.09,0.38-0.17,0.58-0.26c0.4-0.2,0.81-0.4,1.18-0.61
	c0.43-0.23,0.87-0.46,1.3-0.69c0.58-0.32,1.13-0.63,1.7-0.98c0.52-0.32,1.07-0.63,1.59-0.98c0.14-0.12,0.32-0.2,0.46-0.32
	c0.26-0.17,0.52-0.35,0.78-0.52c0.2-0.14,0.4-0.26,0.61-0.4c0.35-0.26,0.69-0.49,1.01-0.75c0.38-0.26,0.72-0.55,1.07-0.81
	c0.46-0.37,0.89-0.75,1.36-1.12c2.65-2.25,4.96-4.73,6.84-7.39c1.36-1.9,2.48-3.92,3.38-5.97h-3.38h-6.84h-1.36h-1.07h-1.62h-0.78
	h-0.46h-1.59h-1.7h-1.3h-1.18h-0.58h-0.69h-0.61h-1.82h-0.03c-1.3,1.36-2.77,2.6-4.44,3.75c-0.06,0.03-0.12,0.09-0.17,0.12
	c-0.61,0.4-1.27,0.81-1.93,1.18c-0.2,0.14-0.46,0.29-0.69,0.43c-0.29,0.14-0.58,0.29-0.87,0.43c-0.12,0.06-0.26,0.14-0.4,0.2
	c-0.2,0.12-0.43,0.2-0.66,0.32c-0.35,0.17-0.72,0.35-1.1,0.49c-0.35,0.14-0.72,0.29-1.07,0.43c-1.96,0.78-4.04,1.38-6.2,1.88
	c-0.89,0.2-1.82,0.38-2.74,0.52c-0.92,0.14-1.85,0.26-2.8,0.35c-1.24,0.12-2.51,0.17-3.81,0.2c-0.2,0-0.43,0-0.63,0
	c-0.58,0-1.15-0.03-1.73-0.03c-1.24-0.06-2.48-0.14-3.72-0.29c-1.41-0.17-2.83-0.37-4.18-0.66c-0.63-0.14-1.27-0.29-1.88-0.46
	c-0.72-0.17-1.41-0.38-2.08-0.58c-0.2-0.06-0.4-0.12-0.58-0.2c-0.49-0.14-0.98-0.32-1.47-0.49c-1.15-0.43-2.28-0.92-3.35-1.44
	c-0.14-0.06-0.26-0.14-0.4-0.2c-0.29-0.14-0.61-0.32-0.89-0.46c-0.38-0.2-0.72-0.4-1.07-0.61c-0.35-0.2-0.69-0.43-1.04-0.63
	c-0.26-0.17-0.49-0.32-0.75-0.49c-0.09-0.06-0.17-0.14-0.29-0.2c-0.26-0.2-0.55-0.4-0.81-0.58c-1.21-0.92-2.34-1.93-3.32-2.97h-0.12
	h-3.92h-0.75h-1.13h-1.27H21.1h-1.67h-1.01h-0.29h-1.67h-0.23h-1.1H6.65H4.63C5.21,55.21,5.9,56.51,6.65,57.78z M6.65,26.22
	c2.22-3.43,5.08-6.58,8.48-9.38c0.38-0.29,0.72-0.58,1.1-0.87c0.06-0.06,0.14-0.12,0.23-0.2c0.49-0.38,1.01-0.75,1.53-1.1
	c0.03-0.03,0.09-0.06,0.14-0.12c0.09-0.06,0.2-0.14,0.29-0.2c0.35-0.23,0.66-0.46,1.01-0.69c0.55-0.35,1.13-0.69,1.67-1.04
	c0.46-0.29,0.92-0.55,1.36-0.81c0.43-0.23,0.87-0.46,1.27-0.69c0.38-0.2,0.75-0.4,1.13-0.58c0.26-0.14,0.49-0.26,0.75-0.4
	c1.27-0.61,2.6-1.21,3.92-1.76c1.13-0.43,2.28-0.87,3.43-1.27c0.29-0.12,0.55-0.2,0.81-0.29c0.35-0.12,0.69-0.23,1.04-0.32
	c0.35-0.12,0.69-0.23,1.04-0.32c0.35-0.12,0.72-0.2,1.07-0.32c0.29-0.09,0.61-0.17,0.89-0.23c0.14-0.03,0.26-0.09,0.4-0.12
	c1.1-0.29,2.22-0.55,3.35-0.78c0.49-0.09,0.98-0.2,1.47-0.29c0.17-0.03,0.37-0.06,0.58-0.12c0.66-0.12,1.36-0.23,2.08-0.32
	c0.61-0.12,1.24-0.2,1.88-0.26c1.38-0.17,2.77-0.32,4.18-0.4c1.24-0.09,2.48-0.14,3.72-0.17c0.58,0,1.15-0.03,1.73-0.03
	c0.2,0,0.43,0,0.63,0c1.3,0.03,2.57,0.06,3.81,0.14c0.95,0.03,1.88,0.12,2.8,0.2c0.92,0.09,1.85,0.17,2.74,0.29
	c2.11,0.29,4.18,0.64,6.2,1.07c0.35,0.09,0.72,0.17,1.07,0.26c0.38,0.09,0.72,0.17,1.1,0.26c0.23,0.06,0.46,0.12,0.66,0.17
	c0.14,0.03,0.29,0.06,0.4,0.09c0.29,0.09,0.58,0.17,0.87,0.23c0.23,0.09,0.49,0.14,0.69,0.23c0.66,0.17,1.3,0.38,1.93,0.58
	c1.59,0.52,3.14,1.07,4.65,1.67c0.61,0.26,1.21,0.52,1.82,0.78c0.2,0.12,0.4,0.2,0.61,0.29c0.23,0.12,0.46,0.2,0.69,0.32
	c0.2,0.09,0.38,0.17,0.58,0.26c0.4,0.2,0.81,0.4,1.18,0.61c0.43,0.23,0.87,0.46,1.3,0.66c0.58,0.32,1.13,0.66,1.7,0.98
	c0.52,0.32,1.07,0.63,1.59,0.98c0.14,0.09,0.32,0.2,0.46,0.29c0.26,0.17,0.52,0.35,0.78,0.52c0.32,0.2,0.61,0.43,0.92,0.63
	c0.23,0.17,0.46,0.35,0.69,0.52c0.38,0.26,0.72,0.52,1.07,0.78c0.46,0.35,0.89,0.72,1.36,1.1c2.63,2.19,4.93,4.62,6.84,7.18
	c1.7,2.31,3.12,4.76,4.15,7.3h1.9h0.29v0.29v10.67V53.6v0.29h-0.29h-2.08c-1.01,2.39-2.37,4.7-3.98,6.9
	c-1.9,2.6-4.21,4.99-6.84,7.18c-0.46,0.38-0.89,0.75-1.36,1.1c-0.35,0.29-0.69,0.55-1.07,0.81c-0.23,0.17-0.46,0.35-0.69,0.49
	c-0.32,0.23-0.61,0.43-0.92,0.63c-0.26,0.17-0.52,0.35-0.78,0.52c-0.14,0.12-0.32,0.2-0.46,0.32c-0.52,0.32-1.07,0.63-1.59,0.95
	c-0.58,0.35-1.13,0.66-1.7,0.98c-0.43,0.23-0.87,0.46-1.3,0.66c-0.38,0.2-0.78,0.4-1.18,0.61c-0.2,0.09-0.38,0.17-0.58,0.26
	c-0.23,0.12-0.46,0.23-0.69,0.35c-0.2,0.09-0.4,0.17-0.61,0.26c-0.61,0.26-1.21,0.52-1.82,0.78c-1.5,0.61-3.06,1.18-4.65,1.67
	c-0.63,0.23-1.27,0.4-1.93,0.61c-0.2,0.06-0.46,0.14-0.69,0.2c-0.29,0.09-0.58,0.17-0.87,0.23c-0.12,0.03-0.26,0.09-0.4,0.12
	c-0.2,0.06-0.43,0.12-0.66,0.17c-0.38,0.09-0.72,0.17-1.1,0.26c-0.35,0.09-0.72,0.14-1.07,0.23c-2.02,0.43-4.1,0.81-6.2,1.07
	c-0.89,0.12-1.82,0.23-2.74,0.32c-0.92,0.09-1.85,0.14-2.8,0.2c-1.24,0.06-2.51,0.12-3.81,0.12c-0.2,0-0.43,0-0.63,0
	c-0.58,0-1.15,0-1.73-0.03c-1.24,0-2.48-0.06-3.72-0.14c-1.41-0.12-2.8-0.23-4.18-0.4c-0.63-0.09-1.27-0.17-1.88-0.26
	c-0.72-0.12-1.41-0.23-2.08-0.35c-0.2-0.03-0.4-0.09-0.58-0.12c-0.49-0.09-0.98-0.17-1.47-0.29c-1.13-0.23-2.25-0.49-3.35-0.78
	c-0.14-0.03-0.26-0.06-0.4-0.09c-0.29-0.09-0.61-0.17-0.89-0.26c-0.35-0.09-0.72-0.2-1.07-0.29c-0.35-0.12-0.69-0.23-1.04-0.32
	c-0.35-0.12-0.69-0.23-1.04-0.35c-0.26-0.09-0.52-0.17-0.81-0.26c-1.15-0.4-2.31-0.84-3.43-1.3c-1.33-0.55-2.65-1.13-3.92-1.76
	c-0.26-0.12-0.49-0.26-0.75-0.37c-0.38-0.2-0.75-0.4-1.13-0.58c-0.4-0.23-0.84-0.46-1.27-0.72c-0.43-0.26-0.89-0.52-1.36-0.78
	c-0.55-0.35-1.13-0.69-1.67-1.07c-0.35-0.23-0.66-0.46-1.01-0.66c-0.09-0.09-0.2-0.14-0.29-0.23c-0.06-0.03-0.12-0.06-0.14-0.12
	c-0.52-0.35-1.04-0.72-1.53-1.1c-0.09-0.06-0.17-0.12-0.23-0.2c-0.38-0.29-0.72-0.55-1.1-0.84c-3.4-2.83-6.26-5.97-8.48-9.41
	c-1.01-1.59-1.9-3.23-2.63-4.93H1H0.71V53.6V31.84v-0.29H1h2.89C4.63,29.71,5.55,27.95,6.65,26.22z M6.65,42.49
	c-0.06,0.03-0.12,0.03-0.17,0.06l-0.61,0.06l0.29-4.53l0.06-0.09c0.03,0,0.06,0,0.12,0c0.12-0.03,0.23-0.03,0.32-0.03
	c0.09-0.03,0.14-0.03,0.2-0.03c0.12,0,0.26,0,0.4,0c0.17,0,0.35,0.03,0.52,0.06c0.17,0.03,0.35,0.12,0.52,0.2l0.12,0.09
	c0.06,0.03,0.09,0.09,0.14,0.12c0.06,0.06,0.09,0.12,0.14,0.17c0.06,0.09,0.12,0.2,0.17,0.32c0.03,0.06,0.06,0.12,0.09,0.2
	c0.03,0.09,0.06,0.17,0.09,0.29c0,0.06,0.03,0.14,0.03,0.2c0.03,0.23,0,0.46,0,0.72l-0.03,0.12c-0.03,0.11-0.06,0.26-0.12,0.37
	c-0.03,0.09-0.06,0.14-0.12,0.23c-0.06,0.12-0.12,0.23-0.2,0.32c-0.06,0.09-0.12,0.14-0.2,0.2c-0.09,0.09-0.17,0.17-0.26,0.26
	c-0.12,0.09-0.23,0.17-0.38,0.23c-0.12,0.09-0.2,0.12-0.32,0.17c-0.14,0.09-0.29,0.14-0.43,0.2C6.91,42.43,6.79,42.46,6.65,42.49z
	 M6.65,37.04c-0.61,0-1.24,0.06-1.88,0.09c-0.4,0.03-0.81,0.09-1.21,0.12L2.61,37.9l1.99,0.17c0.03,0.09,0.03,0.17,0.03,0.26
	c0,0.12,0,0.26,0,0.4c-0.03,1.04-0.09,2.11-0.17,3.17c-0.03,0.72-0.12,1.47-0.17,2.19c-0.06,0.75-0.14,1.5-0.2,2.28H4.05
	c-0.14,0-0.29,0.03-0.43,0.03c-0.17,0.06-0.32,0.09-0.46,0.12L3.1,46.59c-0.06,0.06-0.12,0.12-0.14,0.17
	c-0.12,0.14-0.23,0.32-0.32,0.49h4.01h0.29l0.84-0.58L6.65,46.5l-0.98-0.17c0-0.09-0.03-0.17-0.03-0.26c0-0.17,0.03-0.35,0.03-0.52
	c0-0.23,0.03-0.46,0.03-0.66c0.03-0.46,0.06-0.92,0.09-1.38c0.29,0,0.58-0.03,0.87-0.09c0.09,0,0.14,0,0.2-0.03l0.2-0.03
	c0.17-0.03,0.35-0.09,0.52-0.14c0.17-0.06,0.35-0.12,0.52-0.17c0.14-0.09,0.32-0.14,0.49-0.23c0.17-0.09,0.35-0.2,0.52-0.32
	c0.12-0.09,0.26-0.17,0.38-0.26l0.35-0.32c0.09-0.12,0.2-0.2,0.29-0.32l0.17-0.32c0.12-0.14,0.17-0.35,0.23-0.52
	c0.03-0.06,0.03-0.12,0.06-0.17c0.06-0.17,0.09-0.35,0.12-0.55c0.03-0.32,0.06-0.61,0.03-0.89l-0.03-0.17l-0.14-0.46l-0.23-0.49
	c-0.03-0.09-0.09-0.14-0.14-0.23l-0.12-0.14l-0.14-0.12l-0.14-0.12l-0.14-0.09l-0.17-0.09l-0.17-0.06L9.1,37.12
	c-0.49-0.06-0.98-0.09-1.47-0.12C7.31,37.01,7,37.01,6.65,37.04z M21.4,60.78c-0.02,0.03-0.04,0.06-0.07,0.09
	c0.11,0.08,0.2,0.16,0.25,0.23c0.03,0.04,0.05,0.09,0.05,0.14c0,0.05-0.01,0.1-0.03,0.13c-0.06,0.08-0.2,0.19-0.42,0.33
	c-0.68,0.43-1.37,0.86-2.06,1.28c0.18-0.78,0.38-1.56,0.58-2.33c0.07-0.27,0.14-0.44,0.2-0.52c0.05-0.07,0.11-0.1,0.19-0.1
	c0.08,0,0.17,0.04,0.27,0.11c0.03,0.03,0.07,0.05,0.1,0.08c0.02-0.03,0.04-0.06,0.07-0.09c-0.49-0.37-0.97-0.74-1.45-1.13
	c-0.02,0.03-0.05,0.06-0.07,0.09c0.07,0.06,0.13,0.11,0.15,0.14c0.04,0.05,0.06,0.11,0.09,0.17c0.02,0.05,0.03,0.1,0.03,0.15
	c0,0.1-0.01,0.2-0.03,0.31c-0.03,0.09-0.05,0.19-0.08,0.29c-0.03,0.12-0.07,0.24-0.1,0.36c-0.61,0.35-1.22,0.69-1.84,1.03
	c0.22-0.8,0.45-1.6,0.69-2.39c0.08-0.26,0.14-0.42,0.19-0.47c0.04-0.05,0.11-0.08,0.19-0.07c0.08,0,0.17,0.05,0.26,0.12
	c0.02,0.02,0.04,0.04,0.06,0.05c0.02-0.03,0.05-0.06,0.07-0.09c-0.45-0.37-0.9-0.75-1.35-1.13c-0.02,0.03-0.05,0.06-0.07,0.08
	c0.1,0.09,0.18,0.18,0.21,0.26c0.04,0.08,0.05,0.17,0.04,0.25c-0.01,0.05-0.05,0.21-0.14,0.47c-0.36,1.17-0.7,2.35-1.02,3.55
	c0.03,0.03,0.07,0.06,0.1,0.08c0.84-0.44,1.67-0.89,2.49-1.36c-0.24,0.91-0.47,1.83-0.68,2.76c0.04,0.03,0.08,0.06,0.12,0.09
	c1.03-0.6,2.04-1.23,3.03-1.87c0.23-0.16,0.39-0.25,0.47-0.28c0.12-0.05,0.22-0.06,0.3-0.05s0.18,0.05,0.28,0.12
	c0.02-0.03,0.04-0.06,0.06-0.09C22.16,61.33,21.78,61.06,21.4,60.78z M27.57,64.7c-0.02,0.03-0.04,0.06-0.05,0.1
	c0.12,0.07,0.21,0.13,0.28,0.2c0.04,0.04,0.06,0.08,0.07,0.13c0.01,0.05,0,0.1-0.02,0.14c-0.05,0.08-0.17,0.21-0.38,0.38
	c-0.62,0.52-1.24,1.03-1.88,1.53c0.09-0.8,0.19-1.59,0.31-2.38c0.04-0.27,0.08-0.45,0.14-0.54c0.04-0.07,0.1-0.11,0.18-0.12
	c0.08-0.01,0.17,0.01,0.28,0.08c0.04,0.02,0.07,0.04,0.11,0.06c0.02-0.03,0.04-0.06,0.06-0.1c-0.52-0.3-1.03-0.61-1.55-0.92
	c-0.02,0.03-0.04,0.06-0.06,0.09c0.08,0.05,0.13,0.09,0.17,0.12c0.04,0.04,0.08,0.1,0.11,0.16c0.02,0.04,0.04,0.09,0.04,0.14
	c0.01,0.1,0.01,0.2,0,0.31c-0.02,0.1-0.03,0.19-0.05,0.29c-0.02,0.12-0.04,0.24-0.06,0.37c-0.56,0.42-1.12,0.84-1.69,1.26
	c0.13-0.82,0.26-1.63,0.41-2.44c0.05-0.27,0.09-0.43,0.13-0.49c0.04-0.06,0.09-0.09,0.17-0.1c0.08-0.01,0.17,0.02,0.27,0.09
	c0.02,0.01,0.05,0.03,0.07,0.04c0.02-0.03,0.04-0.06,0.06-0.09c-0.48-0.3-0.97-0.62-1.44-0.93c-0.02,0.03-0.04,0.06-0.06,0.09
	c0.11,0.08,0.19,0.15,0.24,0.22c0.05,0.07,0.07,0.16,0.06,0.25c0,0.05-0.03,0.21-0.08,0.48c-0.22,1.2-0.42,2.41-0.6,3.63
	c0.04,0.02,0.07,0.05,0.11,0.07c0.77-0.54,1.54-1.1,2.29-1.67c-0.13,0.93-0.25,1.87-0.35,2.81c0.04,0.02,0.08,0.05,0.13,0.07
	c0.94-0.73,1.86-1.47,2.76-2.24c0.21-0.19,0.35-0.3,0.43-0.34c0.11-0.06,0.21-0.09,0.29-0.09c0.08,0,0.18,0.03,0.28,0.08
	c0.02-0.03,0.03-0.07,0.05-0.1C28.38,65.14,27.97,64.92,27.57,64.7z M34.08,67.79c-0.01,0.03-0.03,0.07-0.04,0.1
	c0.13,0.05,0.22,0.11,0.29,0.16c0.04,0.03,0.07,0.07,0.08,0.12c0.02,0.05,0.01,0.1,0,0.14c-0.04,0.09-0.14,0.23-0.33,0.43
	c-0.55,0.59-1.1,1.17-1.67,1.75c0-0.8,0.01-1.6,0.03-2.39c0.01-0.27,0.03-0.46,0.07-0.55c0.03-0.08,0.09-0.12,0.16-0.14
	c0.07-0.02,0.17-0.01,0.28,0.04c0.04,0.02,0.07,0.03,0.11,0.05c0.01-0.03,0.03-0.07,0.04-0.1c-0.54-0.23-1.09-0.47-1.62-0.72
	c-0.02,0.03-0.03,0.07-0.05,0.1c0.08,0.04,0.14,0.07,0.18,0.1c0.04,0.04,0.08,0.08,0.12,0.14c0.03,0.04,0.05,0.09,0.06,0.13
	c0.02,0.09,0.03,0.2,0.04,0.31c0,0.1-0.01,0.2-0.01,0.29c0,0.12-0.01,0.25-0.01,0.37c-0.5,0.49-1,0.97-1.51,1.46
	c0.03-0.83,0.07-1.65,0.12-2.47c0.02-0.27,0.04-0.44,0.07-0.5c0.03-0.06,0.08-0.1,0.16-0.12c0.08-0.02,0.17,0,0.28,0.05
	c0.02,0.01,0.05,0.02,0.07,0.03c0.02-0.03,0.03-0.07,0.05-0.1c-0.51-0.24-1.02-0.49-1.52-0.74c-0.02,0.03-0.03,0.07-0.05,0.1
	c0.12,0.06,0.2,0.12,0.26,0.19c0.05,0.07,0.08,0.15,0.09,0.23c0,0.05,0,0.22-0.02,0.49c-0.08,1.22-0.14,2.44-0.18,3.67
	c0.04,0.02,0.08,0.04,0.12,0.05c0.7-0.64,1.38-1.28,2.05-1.94c-0.02,0.94-0.03,1.88-0.03,2.83c0.04,0.02,0.09,0.04,0.13,0.06
	c0.84-0.84,1.66-1.69,2.45-2.56c0.19-0.21,0.31-0.34,0.38-0.39c0.1-0.07,0.19-0.11,0.27-0.12c0.08-0.01,0.18,0.01,0.29,0.05
	c0.01-0.03,0.03-0.07,0.04-0.1C34.92,68.12,34.5,67.96,34.08,67.79z M34.78,71.9c-0.09,0.03-0.16,0.1-0.19,0.18
	c-0.03,0.09-0.02,0.17,0.03,0.26c0.05,0.09,0.13,0.15,0.23,0.19c0.1,0.04,0.2,0.04,0.3,0c0.09-0.04,0.16-0.1,0.19-0.18
	c0.03-0.09,0.02-0.17-0.03-0.26c-0.05-0.09-0.13-0.15-0.23-0.19C34.97,71.87,34.87,71.87,34.78,71.9z M38.95,69.82
	c0.18,0.02,0.33,0.04,0.44,0.07c0.18,0.05,0.33,0.14,0.45,0.25c0.12,0.11,0.2,0.25,0.24,0.42c0.04,0.17,0.03,0.34-0.02,0.51
	c-0.07,0.25-0.21,0.43-0.42,0.53c-0.21,0.11-0.43,0.13-0.66,0.06c-0.06-0.02-0.14-0.05-0.23-0.08c-0.09-0.04-0.19-0.08-0.3-0.14
	C38.62,70.91,38.79,70.36,38.95,69.82z M38.8,71.79c0.12,0.05,0.24,0.09,0.35,0.12c0.44,0.13,0.81,0.12,1.11-0.01
	c0.3-0.14,0.49-0.37,0.57-0.69c0.06-0.24,0.04-0.46-0.07-0.68c-0.11-0.21-0.27-0.39-0.47-0.52c-0.2-0.14-0.5-0.26-0.89-0.37
	c-0.53-0.16-1.06-0.32-1.58-0.49c-0.01,0.04-0.02,0.07-0.03,0.11c0.05,0.02,0.11,0.04,0.16,0.05c0.16,0.05,0.27,0.13,0.33,0.24
	c0.04,0.08,0.02,0.24-0.06,0.48c-0.26,0.84-0.53,1.68-0.79,2.51c-0.07,0.22-0.14,0.36-0.2,0.4c-0.12,0.08-0.27,0.09-0.47,0.03
	c-0.06-0.02-0.12-0.04-0.17-0.06c-0.01,0.04-0.02,0.07-0.03,0.11c0.66,0.21,1.31,0.42,1.98,0.61c0.01-0.04,0.02-0.07,0.03-0.11
	c-0.06-0.02-0.12-0.03-0.18-0.05c-0.17-0.05-0.29-0.13-0.35-0.24c-0.05-0.08-0.03-0.24,0.04-0.49c0.12-0.38,0.23-0.76,0.35-1.14
	C38.54,71.68,38.67,71.74,38.8,71.79z M43.06,74.66c-0.11-0.02-0.21-0.07-0.3-0.14c-0.07-0.05-0.1-0.1-0.12-0.16
	c-0.02-0.07,0-0.21,0.04-0.41c0.19-0.86,0.38-1.71,0.57-2.57c0.05-0.24,0.11-0.38,0.18-0.43c0.1-0.08,0.24-0.1,0.42-0.06
	c0.05,0.01,0.11,0.02,0.16,0.03c0.01-0.04,0.02-0.07,0.02-0.11c-0.63-0.13-1.25-0.27-1.88-0.43c-0.01,0.04-0.02,0.07-0.03,0.11
	c0.05,0.01,0.1,0.03,0.16,0.04c0.1,0.02,0.2,0.07,0.28,0.14c0.06,0.05,0.09,0.1,0.1,0.16c0.01,0.07,0,0.21-0.05,0.41
	c-0.2,0.86-0.4,1.71-0.6,2.57c-0.06,0.24-0.12,0.38-0.19,0.43c-0.11,0.08-0.26,0.09-0.45,0.04c-0.05-0.01-0.11-0.03-0.16-0.04
	c-0.01,0.04-0.02,0.07-0.03,0.11c0.67,0.16,1.34,0.32,2.01,0.46c0.01-0.04,0.02-0.07,0.02-0.11C43.17,74.69,43.11,74.68,43.06,74.66
	z M45.44,71.09c-0.09,0.33-0.19,0.66-0.28,0.99c0.04,0.01,0.08,0.02,0.13,0.02c0.09-0.23,0.17-0.39,0.24-0.46
	c0.07-0.08,0.17-0.13,0.28-0.16c0.11-0.03,0.29-0.02,0.52,0.02c0.47,0.08,0.95,0.15,1.42,0.22c-1.13,1.09-2.32,2.15-3.56,3.17
	c-0.01,0.04-0.01,0.07-0.02,0.11c1.28,0.25,2.56,0.46,3.85,0.63c0.12-0.35,0.24-0.69,0.36-1.04c-0.04-0.01-0.07-0.02-0.11-0.03
	c-0.17,0.32-0.34,0.53-0.51,0.62c-0.17,0.09-0.41,0.11-0.71,0.07c-0.65-0.1-1.29-0.2-1.93-0.32c1.26-1.07,2.45-2.18,3.59-3.32
	C47.62,71.47,46.53,71.3,45.44,71.09z M50.21,71.78c-0.07,0.34-0.13,0.67-0.2,1c0.04,0,0.08,0.01,0.13,0.01
	c0.07-0.24,0.14-0.4,0.21-0.48c0.07-0.08,0.15-0.14,0.27-0.18c0.11-0.04,0.29-0.04,0.52-0.02c0.48,0.04,0.96,0.08,1.44,0.11
	c-1.04,1.18-2.14,2.33-3.29,3.45c0,0.04-0.01,0.07-0.01,0.11c1.29,0.14,2.59,0.25,3.88,0.32c0.09-0.36,0.19-0.71,0.28-1.07
	c-0.04-0.01-0.08-0.02-0.11-0.02c-0.14,0.34-0.29,0.56-0.46,0.66c-0.17,0.1-0.4,0.15-0.7,0.13c-0.65-0.04-1.3-0.1-1.95-0.16
	c1.16-1.17,2.27-2.37,3.31-3.6C52.41,71.98,51.31,71.9,50.21,71.78z M55.87,74.59c0.28-0.55,0.54-1.1,0.8-1.65
	c0.26,0.55,0.53,1.09,0.8,1.64C56.94,74.59,56.4,74.6,55.87,74.59z M57.87,75.39c0.1,0.19,0.15,0.33,0.15,0.41
	c0,0.07-0.03,0.12-0.1,0.17c-0.07,0.05-0.19,0.08-0.38,0.09c0,0.04,0,0.07,0,0.11c0.63-0.01,1.26-0.03,1.89-0.06
	c0-0.04,0-0.07-0.01-0.11c-0.19,0-0.35-0.04-0.46-0.12c-0.11-0.08-0.24-0.25-0.38-0.52c-0.59-1.11-1.14-2.23-1.67-3.36
	c-0.04,0-0.08,0-0.12,0c-0.52,1.12-1.06,2.24-1.64,3.35c-0.15,0.29-0.29,0.48-0.41,0.58c-0.06,0.05-0.19,0.08-0.39,0.11
	c0,0.04,0,0.07,0,0.11c0.5,0.02,1,0.03,1.51,0.03c0-0.04,0-0.07,0-0.11c-0.23-0.02-0.38-0.05-0.45-0.1c-0.07-0.05-0.1-0.1-0.1-0.17
	c0-0.08,0.04-0.2,0.12-0.35c0.11-0.21,0.22-0.43,0.33-0.64c0.6,0.01,1.21,0,1.81-0.01C57.67,75,57.77,75.19,57.87,75.39z
	 M61.43,72.62c-0.02-0.2-0.01-0.33,0.01-0.4c0.02-0.07,0.06-0.12,0.13-0.16c0.09-0.05,0.19-0.09,0.29-0.1
	c0.05-0.01,0.11-0.01,0.16-0.01c0-0.04-0.01-0.07-0.01-0.11c-0.64,0.06-1.27,0.11-1.91,0.15c0,0.04,0,0.07,0.01,0.11
	c0.05,0,0.11-0.01,0.16-0.01c0.11-0.01,0.21,0.01,0.31,0.05c0.07,0.03,0.12,0.07,0.14,0.12c0.03,0.06,0.06,0.2,0.07,0.41
	c0.06,0.88,0.13,1.75,0.19,2.62c0.02,0.24,0,0.4-0.05,0.47c-0.08,0.1-0.22,0.16-0.42,0.18c-0.06,0-0.11,0.01-0.17,0.01
	c0,0.04,0,0.07,0.01,0.11c0.68-0.04,1.36-0.1,2.04-0.16c0-0.04-0.01-0.07-0.01-0.11c-0.06,0.01-0.11,0.01-0.17,0.02
	c-0.11,0.01-0.22,0-0.33-0.04c-0.08-0.03-0.13-0.07-0.16-0.12c-0.04-0.06-0.06-0.2-0.08-0.4c-0.03-0.41-0.07-0.82-0.1-1.24
	c0.72-0.06,1.43-0.13,2.14-0.22c0.05,0.41,0.1,0.82,0.15,1.23c0.03,0.24,0.02,0.4-0.03,0.47c-0.08,0.11-0.21,0.17-0.41,0.19
	c-0.06,0.01-0.11,0.01-0.17,0.02c0,0.04,0.01,0.07,0.01,0.11c0.68-0.07,1.36-0.16,2.03-0.25c-0.01-0.04-0.01-0.07-0.02-0.11
	c-0.06,0.01-0.11,0.02-0.17,0.02c-0.11,0.01-0.22,0.01-0.33-0.03c-0.08-0.03-0.13-0.06-0.16-0.11c-0.04-0.06-0.07-0.19-0.1-0.4
	c-0.11-0.87-0.23-1.74-0.34-2.61c-0.03-0.2-0.03-0.33-0.01-0.4c0.02-0.07,0.06-0.12,0.12-0.16c0.09-0.06,0.18-0.09,0.29-0.11
	c0.05-0.01,0.11-0.01,0.16-0.02c-0.01-0.04-0.01-0.07-0.02-0.11c-0.63,0.09-1.27,0.17-1.9,0.23c0,0.04,0.01,0.07,0.01,0.11
	c0.05-0.01,0.11-0.01,0.16-0.02c0.11-0.01,0.21,0,0.31,0.04c0.07,0.03,0.13,0.07,0.15,0.11c0.04,0.06,0.07,0.2,0.09,0.4
	c0.05,0.39,0.09,0.77,0.14,1.16c-0.71,0.08-1.42,0.16-2.14,0.21C61.49,73.4,61.46,73.01,61.43,72.62z M68.99,71.32
	c0.37,0.27,0.63,0.75,0.79,1.43c0.14,0.63,0.1,1.12-0.12,1.47c-0.22,0.35-0.56,0.58-1,0.66c-0.41,0.08-0.77,0.01-1.07-0.22
	c-0.39-0.29-0.64-0.77-0.75-1.43c-0.11-0.64-0.04-1.15,0.2-1.54c0.19-0.31,0.49-0.5,0.88-0.58C68.34,71.03,68.7,71.1,68.99,71.32z
	 M66.54,71.69c-0.41,0.49-0.58,1.04-0.48,1.68c0.1,0.63,0.4,1.1,0.9,1.42c0.51,0.32,1.09,0.42,1.74,0.29
	c0.64-0.13,1.15-0.44,1.5-0.94c0.36-0.5,0.46-1.05,0.32-1.65c-0.14-0.59-0.47-1.02-0.98-1.32c-0.51-0.3-1.04-0.39-1.61-0.28
	C67.36,71,66.9,71.26,66.54,71.69z M74.31,69.48c0.16-0.05,0.3-0.05,0.41,0.01c0.08,0.04,0.16,0.18,0.24,0.43
	c0.17,0.52,0.34,1.05,0.51,1.57c0.13,0.41,0.18,0.72,0.15,0.92c-0.03,0.2-0.15,0.39-0.35,0.58c-0.2,0.18-0.45,0.32-0.76,0.41
	c-0.24,0.07-0.45,0.09-0.63,0.07c-0.18-0.03-0.33-0.08-0.45-0.17c-0.12-0.09-0.22-0.22-0.31-0.41c-0.09-0.19-0.15-0.36-0.19-0.51
	c-0.16-0.57-0.31-1.14-0.47-1.71c-0.06-0.22-0.07-0.37-0.04-0.46c0.05-0.12,0.16-0.21,0.34-0.26c0.06-0.02,0.11-0.03,0.17-0.05
	c-0.01-0.04-0.02-0.07-0.03-0.11c-0.62,0.18-1.25,0.35-1.88,0.51c0.01,0.04,0.02,0.07,0.03,0.11c0.05-0.01,0.11-0.03,0.16-0.04
	c0.17-0.04,0.29-0.04,0.39,0.02c0.09,0.06,0.17,0.21,0.24,0.45c0.14,0.51,0.27,1.03,0.41,1.54c0.13,0.48,0.25,0.79,0.36,0.94
	c0.18,0.22,0.41,0.37,0.72,0.45c0.3,0.08,0.71,0.04,1.21-0.11c0.46-0.14,0.81-0.33,1.03-0.57c0.22-0.24,0.34-0.48,0.36-0.72
	c0.02-0.24-0.03-0.56-0.16-0.95c-0.17-0.52-0.34-1.05-0.52-1.57c-0.07-0.22-0.09-0.36-0.07-0.43c0.05-0.16,0.16-0.26,0.33-0.32
	c0.05-0.02,0.11-0.04,0.16-0.05c-0.01-0.04-0.02-0.07-0.04-0.11c-0.51,0.17-1.01,0.34-1.52,0.49c0.01,0.04,0.02,0.07,0.03,0.11
	C74.2,69.52,74.25,69.5,74.31,69.48z M79.13,67.52c0.02,0.1,0.01,0.16-0.01,0.21c-0.02,0.04-0.06,0.08-0.11,0.1
	c-0.05,0.02-0.14,0.03-0.27,0.03c-0.29,0-0.55,0.05-0.77,0.13c-0.36,0.14-0.62,0.35-0.78,0.63c-0.16,0.29-0.19,0.56-0.1,0.84
	c0.06,0.16,0.15,0.29,0.28,0.39c0.13,0.1,0.29,0.18,0.49,0.23c0.2,0.05,0.52,0.1,0.97,0.13c0.45,0.04,0.73,0.06,0.83,0.08
	c0.16,0.03,0.29,0.08,0.39,0.15c0.1,0.07,0.17,0.15,0.2,0.24c0.07,0.17,0.05,0.34-0.06,0.53c-0.11,0.19-0.3,0.34-0.58,0.44
	c-0.24,0.09-0.48,0.13-0.71,0.12c-0.23-0.01-0.43-0.07-0.57-0.17c-0.15-0.1-0.3-0.28-0.46-0.53c-0.04,0.01-0.08,0.03-0.12,0.04
	c0.16,0.44,0.32,0.88,0.48,1.31c0.04-0.01,0.08-0.03,0.12-0.04c-0.02-0.09-0.01-0.16,0.01-0.2c0.02-0.04,0.06-0.07,0.12-0.09
	c0.06-0.02,0.21-0.04,0.45-0.07c0.24-0.02,0.4-0.04,0.47-0.06c0.12-0.03,0.25-0.07,0.38-0.12c0.42-0.16,0.72-0.41,0.89-0.72
	c0.18-0.32,0.2-0.62,0.08-0.9c-0.06-0.15-0.16-0.28-0.3-0.38c-0.14-0.1-0.3-0.17-0.49-0.21c-0.19-0.04-0.53-0.07-1.01-0.1
	c-0.59-0.04-0.97-0.11-1.16-0.2c-0.13-0.06-0.21-0.15-0.26-0.27c-0.06-0.15-0.04-0.31,0.06-0.49c0.1-0.17,0.26-0.3,0.47-0.38
	c0.19-0.07,0.39-0.1,0.61-0.09c0.21,0.02,0.4,0.08,0.56,0.19c0.16,0.11,0.31,0.28,0.45,0.52c0.04-0.02,0.08-0.03,0.12-0.05
	c-0.18-0.43-0.36-0.87-0.54-1.3C79.21,67.49,79.17,67.51,79.13,67.52z M83.07,66.08c0.2-0.1,0.35-0.16,0.45-0.17
	c0.12-0.01,0.22,0,0.31,0.05c0.09,0.05,0.2,0.15,0.34,0.32c0.04-0.02,0.08-0.04,0.12-0.06c-0.15-0.26-0.3-0.51-0.46-0.77
	c-1.05,0.54-2.11,1.05-3.18,1.52c0.01,0.03,0.03,0.07,0.04,0.1c0.05-0.02,0.1-0.04,0.15-0.07c0.17-0.08,0.31-0.1,0.42-0.06
	c0.08,0.03,0.17,0.16,0.28,0.4c0.37,0.8,0.74,1.61,1.1,2.41c0.08,0.18,0.12,0.31,0.13,0.38c0,0.07-0.03,0.14-0.08,0.2
	c-0.07,0.08-0.16,0.15-0.27,0.2c-0.05,0.02-0.1,0.05-0.16,0.07c0.02,0.03,0.03,0.07,0.05,0.1c1.14-0.51,2.28-1.05,3.39-1.63
	c-0.03-0.37-0.06-0.73-0.1-1.1c-0.04,0.02-0.08,0.04-0.13,0.07c-0.02,0.29-0.07,0.53-0.14,0.71c-0.06,0.14-0.14,0.25-0.23,0.33
	c-0.1,0.08-0.27,0.19-0.52,0.31c-0.25,0.12-0.49,0.24-0.74,0.36c-0.12,0.06-0.21,0.09-0.26,0.09c-0.05,0-0.1-0.01-0.13-0.04
	c-0.03-0.03-0.09-0.12-0.17-0.29c-0.19-0.41-0.38-0.81-0.57-1.22c0.31-0.15,0.63-0.3,0.94-0.45c0.18-0.09,0.32-0.13,0.42-0.14
	c0.1-0.01,0.19,0.01,0.26,0.05c0.05,0.04,0.14,0.13,0.26,0.3c0.04-0.02,0.08-0.04,0.12-0.06c-0.21-0.42-0.43-0.84-0.64-1.27
	c-0.04,0.02-0.08,0.04-0.11,0.06c0.09,0.21,0.11,0.39,0.04,0.53c-0.05,0.1-0.19,0.22-0.44,0.33c-0.31,0.15-0.62,0.3-0.93,0.45
	c-0.23-0.49-0.46-0.97-0.69-1.46C82.32,66.45,82.7,66.27,83.07,66.08z M87.22,67.71c-0.04,0.09-0.03,0.18,0.01,0.26
	c0.04,0.08,0.12,0.13,0.22,0.15c0.1,0.02,0.2,0,0.3-0.05c0.1-0.05,0.16-0.13,0.2-0.23c0.04-0.1,0.03-0.18-0.01-0.26
	c-0.05-0.08-0.12-0.13-0.22-0.15c-0.1-0.02-0.2,0-0.3,0.06C87.32,67.54,87.25,67.61,87.22,67.71z M91.84,65.45
	c-0.1-1.31-0.24-2.6-0.41-3.89c0.53,0.74,1.05,1.48,1.58,2.22c0.13,0.19,0.2,0.32,0.19,0.4c-0.01,0.13-0.1,0.26-0.28,0.39
	c-0.05,0.03-0.1,0.07-0.14,0.1c0.02,0.03,0.04,0.06,0.06,0.09c0.58-0.4,1.15-0.82,1.72-1.24c-0.02-0.03-0.04-0.06-0.07-0.09
	c-0.05,0.03-0.09,0.07-0.14,0.1c-0.16,0.12-0.3,0.17-0.42,0.15c-0.09-0.01-0.21-0.12-0.36-0.32c-0.52-0.72-1.05-1.44-1.57-2.15
	c-0.13-0.18-0.2-0.32-0.2-0.4c0.01-0.13,0.09-0.26,0.25-0.38c0.04-0.03,0.09-0.07,0.13-0.1c-0.02-0.03-0.04-0.06-0.07-0.09
	c-0.36,0.27-0.71,0.53-1.07,0.78c0.16,1.19,0.3,2.39,0.41,3.6c-1.09-0.55-2.15-1.13-3.19-1.73c-0.37,0.23-0.74,0.46-1.12,0.69
	c0.02,0.03,0.04,0.06,0.06,0.1c0.16-0.1,0.29-0.15,0.38-0.16c0.09-0.01,0.17,0,0.23,0.03c0.08,0.04,0.17,0.14,0.26,0.3
	c0.47,0.76,0.93,1.51,1.4,2.27c0.12,0.19,0.17,0.33,0.16,0.42c-0.02,0.13-0.12,0.26-0.3,0.36c-0.05,0.03-0.1,0.06-0.15,0.09
	c0.02,0.03,0.04,0.06,0.06,0.1c0.49-0.3,0.98-0.6,1.46-0.91c-0.02-0.03-0.04-0.06-0.06-0.09c-0.05,0.03-0.1,0.06-0.15,0.09
	c-0.16,0.1-0.31,0.14-0.43,0.12c-0.09-0.02-0.2-0.13-0.33-0.35c-0.48-0.77-0.96-1.54-1.44-2.31c1.12,0.65,2.26,1.28,3.43,1.88
	C91.77,65.5,91.81,65.47,91.84,65.45z M94.16,59.07c0.17-0.21,0.34-0.39,0.5-0.52c0.43-0.36,0.89-0.53,1.37-0.53
	c0.49,0.01,0.92,0.22,1.29,0.64c0.37,0.42,0.52,0.88,0.45,1.37c-0.07,0.49-0.33,0.93-0.77,1.3c-0.16,0.14-0.39,0.28-0.67,0.44
	C95.62,60.87,94.89,59.97,94.16,59.07z M97.16,61.48c0.76-0.63,1.17-1.28,1.25-1.91c0.07-0.57-0.1-1.06-0.48-1.48
	c-0.28-0.31-0.62-0.51-1.01-0.6c-0.39-0.09-0.76-0.06-1.14,0.08c-0.37,0.14-0.83,0.44-1.37,0.89c-0.5,0.41-1,0.81-1.5,1.2
	c0.02,0.03,0.05,0.06,0.07,0.09c0.05-0.04,0.09-0.07,0.14-0.11c0.14-0.11,0.27-0.16,0.4-0.15c0.09,0.01,0.22,0.11,0.37,0.31
	c0.54,0.69,1.09,1.38,1.63,2.07c0.14,0.18,0.21,0.31,0.21,0.4c0,0.14-0.09,0.28-0.25,0.41c-0.05,0.04-0.1,0.08-0.15,0.12
	c0.02,0.03,0.05,0.06,0.07,0.09C95.99,62.43,96.58,61.96,97.16,61.48z M106.33,31.56h3.55c-0.92-2.19-2.11-4.33-3.55-6.35
	c-1.88-2.65-4.18-5.14-6.84-7.41c-0.46-0.38-0.89-0.75-1.36-1.13c-0.35-0.26-0.69-0.52-1.07-0.78c-0.32-0.26-0.66-0.52-1.01-0.75
	c-0.2-0.14-0.4-0.29-0.61-0.43c-0.26-0.17-0.52-0.35-0.78-0.52c-0.14-0.09-0.32-0.2-0.46-0.32c-0.52-0.32-1.07-0.66-1.59-0.98
	c-0.58-0.32-1.13-0.66-1.7-0.98c-0.43-0.23-0.87-0.46-1.3-0.66c-0.38-0.2-0.78-0.4-1.18-0.61c-0.2-0.09-0.38-0.2-0.58-0.29
	c-0.23-0.09-0.46-0.2-0.69-0.32c-0.2-0.09-0.4-0.17-0.61-0.29c-0.61-0.26-1.21-0.52-1.82-0.78c-1.5-0.61-3.06-1.18-4.65-1.7
	c-0.63-0.2-1.27-0.4-1.93-0.58c-0.2-0.09-0.46-0.14-0.69-0.23c-0.29-0.09-0.58-0.14-0.87-0.23c-0.12-0.03-0.26-0.06-0.4-0.12
	c-0.2-0.06-0.43-0.12-0.66-0.14c-0.38-0.12-0.72-0.2-1.1-0.29c-0.35-0.09-0.72-0.14-1.07-0.23c-2.02-0.43-4.1-0.81-6.2-1.07
	c-0.89-0.12-1.82-0.23-2.74-0.32c-0.92-0.09-1.85-0.14-2.8-0.2c-1.24-0.09-2.51-0.12-3.81-0.12c-0.2,0-0.43-0.03-0.63-0.03
	c-0.58,0-1.15,0.03-1.73,0.03c-1.24,0.03-2.48,0.09-3.72,0.17c-1.41,0.09-2.8,0.23-4.18,0.4c-0.63,0.09-1.27,0.17-1.88,0.26
	c-0.72,0.12-1.41,0.23-2.08,0.35c-0.2,0.03-0.4,0.06-0.58,0.12c-0.49,0.09-0.98,0.17-1.47,0.29c-1.13,0.23-2.25,0.49-3.35,0.78
	c-0.14,0.03-0.26,0.06-0.4,0.12c-0.29,0.06-0.61,0.14-0.89,0.23c-0.35,0.12-0.72,0.2-1.07,0.32c-0.35,0.09-0.69,0.2-1.04,0.32
	c-0.35,0.12-0.69,0.2-1.04,0.32c-0.26,0.12-0.52,0.2-0.81,0.29c-1.15,0.4-2.31,0.84-3.43,1.3c-1.33,0.55-2.65,1.15-3.92,1.79
	c-0.26,0.12-0.49,0.26-0.75,0.38c-0.38,0.2-0.75,0.4-1.13,0.61c-0.43,0.23-0.84,0.46-1.27,0.69c-0.43,0.26-0.89,0.55-1.36,0.81
	c-0.55,0.35-1.13,0.72-1.67,1.07c-0.35,0.23-0.66,0.46-1.01,0.69l-0.12,0.12c-0.06,0.03-0.12,0.06-0.17,0.12
	c-0.58,0.4-1.13,0.81-1.67,1.24c-0.09,0.06-0.17,0.12-0.23,0.2c-0.38,0.26-0.72,0.58-1.1,0.87c-3.46,2.89-6.32,6.17-8.48,9.69
	c-0.84,1.39-1.56,2.83-2.19,4.3h2.19h8.48h1.1h0.23h1.67h0.29h1.01h1.67h1.36h1.27h1.13h0.75h2.37c0.49-0.63,1.01-1.27,1.56-1.85
	c1.01-1.1,2.16-2.14,3.43-3.09c0.26-0.2,0.55-0.4,0.81-0.61c0.12-0.06,0.2-0.12,0.29-0.2c0.26-0.14,0.49-0.32,0.75-0.49
	c0.35-0.2,0.69-0.43,1.04-0.63c0.35-0.2,0.69-0.4,1.07-0.61c0.29-0.14,0.61-0.32,0.89-0.46c0.14-0.06,0.26-0.12,0.4-0.2
	c1.07-0.52,2.19-0.98,3.35-1.41c0.49-0.2,0.98-0.38,1.47-0.52c0.17-0.06,0.37-0.14,0.58-0.2c0.66-0.2,1.36-0.4,2.08-0.58
	c0.61-0.17,1.24-0.32,1.88-0.43c1.36-0.29,2.77-0.52,4.18-0.69c1.24-0.14,2.48-0.23,3.72-0.29c0.58,0,1.15-0.03,1.73-0.03
	c0.2,0,0.43,0,0.63,0.03c1.3,0,2.57,0.09,3.81,0.2c0.95,0.09,1.88,0.2,2.8,0.35c0.92,0.14,1.85,0.32,2.74,0.49
	c2.16,0.49,4.24,1.13,6.2,1.88c0.35,0.14,0.72,0.29,1.07,0.43c0.38,0.17,0.75,0.32,1.1,0.49c0.23,0.12,0.46,0.2,0.66,0.32
	c0.14,0.06,0.29,0.14,0.4,0.2c0.29,0.14,0.58,0.29,0.87,0.46c0.23,0.12,0.49,0.26,0.69,0.4c0.66,0.38,1.33,0.78,1.93,1.18
	c0.06,0.06,0.12,0.09,0.17,0.12c1.67,1.15,3.17,2.42,4.47,3.81c0.58,0.63,1.13,1.27,1.62,1.93h0.2h0.61h0.69h0.58h1.18h1.3h1.7h1.59
	h0.46h0.78h1.62h1.07h1.36H106.33z"/>
<path class="st1" d="M94.56,28.84c-0.23-0.32-0.45-0.67-0.68-1.02c-0.06-0.09-0.11-0.2-0.2-0.32c0.14,0,0.26,0.06,0.34,0.12
	c0.08,0.09,0.17,0.18,0.25,0.29c0.09-0.03,0.17-0.06,0.29-0.11c0.15-0.06,0.32-0.11,0.47-0.19c0.26-0.11,0.52-0.22,0.78-0.33
	c0.55-0.22,1.1-0.5,1.63-0.78c0.23-0.11,0.47-0.22,0.67-0.34c0-0.06-0.03-0.14-0.11-0.26c-0.06-0.15-0.08-0.23-0.11-0.29
	c0.03,0,0.09,0.03,0.14,0.03c0.03,0,0.09,0.03,0.11,0.06l0.06,0.09l0.31,0.44l0.28,0.41c0.11,0.15,0.23,0.32,0.37,0.55l-0.29-0.09
	c-0.03,0-0.06-0.06-0.14-0.12c-0.06-0.06-0.11-0.12-0.14-0.18l-0.06-0.12l-0.03,0.03l-0.2,0.03c-0.2,0.11-0.49,0.25-0.87,0.42
	c-0.23,0.11-0.49,0.22-0.78,0.33c-0.32,0.14-0.58,0.28-0.84,0.39c-0.29,0.14-0.55,0.25-0.78,0.36l-0.06,0.06
	c-0.06,0.03-0.12,0.06-0.17,0.08c-0.03,0.03-0.06,0.06-0.09,0.09c0.06,0.12,0.14,0.23,0.2,0.38c0.06,0.09,0.08,0.15,0.11,0.2
	c0.03,0.06,0.08,0.09,0.11,0.15c0.14,0.2,0.28,0.38,0.45,0.5c0.06,0.03,0.14,0.09,0.2,0.12c0.14,0.06,0.26,0.12,0.43,0.15
	c0.17,0.03,0.37,0.04,0.63,0.01c0.09,0,0.2-0.03,0.35-0.05l-0.06,0.17c-0.17,0.06-0.32,0.11-0.43,0.14
	c-0.32,0.11-0.55,0.16-0.72,0.16c-0.06,0.03-0.09,0.03-0.12,0.03c-0.03,0-0.06,0-0.09,0c-0.03,0-0.09-0.03-0.11-0.09
	c-0.09-0.06-0.2-0.21-0.37-0.41c-0.08-0.15-0.17-0.26-0.28-0.38c-0.06-0.09-0.11-0.2-0.2-0.29C94.73,29.13,94.65,28.99,94.56,28.84"
	/>
<path class="st1" d="M91.34,25.04c-0.11-0.12-0.23-0.23-0.34-0.35c-0.06-0.06-0.14-0.18-0.25-0.29c0.14,0,0.26,0.03,0.37,0.09
	c0.06,0.03,0.14,0.09,0.23,0.15c0.03,0.03,0.06,0.06,0.09,0.09c0.55-0.31,1.11-0.65,1.63-1.01c0.53-0.37,1.08-0.76,1.61-1.16
	c0.06-0.06,0.12-0.11,0.2-0.17c-0.03-0.03-0.08-0.12-0.17-0.23l-0.03-0.06c-0.08-0.09-0.14-0.15-0.17-0.2c0.06,0,0.12,0,0.14,0.03
	l0.03,0c0.03,0,0.09,0,0.12,0.03l0.09,0.06l0.26,0.29l0.48,0.47l0.28,0.29l0.2,0.18l-0.2,0l-0.11-0.03c-0.03,0-0.09-0.03-0.17-0.09
	c-0.06-0.06-0.14-0.09-0.17-0.15l-0.09-0.09l-0.2,0.05l-0.03,0.03c-0.12,0.11-0.29,0.23-0.47,0.37c-0.29,0.17-0.61,0.39-0.99,0.62
	c-0.2,0.14-0.44,0.28-0.61,0.42c-0.38,0.22-0.67,0.45-0.9,0.62c-0.03,0.03-0.09,0.09-0.12,0.11c-0.03,0.03-0.06,0.06-0.09,0.09
	c0.08,0.12,0.17,0.23,0.28,0.35c0.08,0.15,0.2,0.23,0.25,0.32c0.17,0.18,0.37,0.29,0.54,0.41l0.03,0c0.17,0.09,0.4,0.15,0.66,0.16
	c0.17,0.03,0.38,0.01,0.64-0.05c0.06-0.03,0.15-0.06,0.26-0.08l0.06-0.03l0,0.17l-0.06,0.03l-0.35,0.17
	c-0.32,0.14-0.52,0.22-0.7,0.28c-0.03,0-0.06,0.03-0.09,0.03c-0.09,0.03-0.14,0.03-0.23-0.03c-0.06-0.06-0.14-0.12-0.23-0.21
	c-0.06-0.03-0.14-0.12-0.2-0.18c-0.2-0.18-0.4-0.38-0.6-0.56C91.9,25.68,91.62,25.36,91.34,25.04"/>
<path class="st1" d="M85.24,20.44l-0.94-0.59c0.09-0.06,0.2-0.05,0.32-0.02c0.06,0,0.14,0.03,0.23,0.09
	c0.11,0.03,0.17,0.06,0.23,0.09l0.18-0.14c0.44-0.43,0.85-0.85,1.26-1.28c0.21-0.23,0.41-0.45,0.59-0.68
	c0.21-0.23,0.41-0.48,0.62-0.71l0.09-0.09l-0.09-0.06L87.2,16.6c0.12-0.03,0.2-0.03,0.32,0.01c0.06,0.03,0.14,0.06,0.2,0.09
	c0.11,0.06,0.2,0.12,0.26,0.15c0.17,0.09,0.32,0.15,0.43,0.24c0.23,0.12,0.4,0.21,0.54,0.3l0.03,0.03c0.26,0.15,0.46,0.3,0.6,0.44
	c0.17,0.15,0.25,0.32,0.28,0.5c0.03,0.2-0.01,0.38-0.12,0.52c-0.06,0.06-0.09,0.11-0.15,0.17c-0.06,0.06-0.12,0.11-0.18,0.17
	c-0.15,0.08-0.32,0.14-0.46,0.17c-0.09,0.03-0.14,0.03-0.2,0.05c-0.12,0-0.23,0-0.38-0.01c-0.12,0-0.26-0.03-0.4-0.04
	c-0.06,0.35-0.13,0.72-0.19,1.06c-0.06,0.43-0.01,0.81,0.15,1.13c0.08,0.15,0.14,0.26,0.17,0.29c0.06,0.15,0.14,0.23,0.23,0.32
	c0.06,0.03,0.09,0.06,0.11,0.09l-0.12,0.03l-0.09,0.03c-0.06,0-0.09,0-0.12-0.03c-0.17-0.06-0.34-0.12-0.49-0.21l-0.03-0.03
	c-0.09-0.03-0.14-0.09-0.17-0.12c-0.06-0.03-0.11-0.09-0.17-0.18c-0.09-0.09-0.14-0.18-0.14-0.26c-0.03-0.06-0.03-0.2-0.02-0.38
	c0.1-0.6,0.19-1.21,0.29-1.81l-0.31-0.21l-0.23-0.15c-0.15,0.17-0.32,0.34-0.53,0.57c-0.21,0.23-0.38,0.46-0.53,0.66l-0.15,0.17
	l0.57,0.5l-0.23,0.05L85.24,20.44z M87.08,18.68l-0.03,0.03c-0.03,0.03-0.06,0.09-0.09,0.11l0.11,0.06l0.03,0.03
	c0.2,0.12,0.37,0.18,0.57,0.24c0.12,0,0.23,0,0.35,0.01c0.12,0,0.26-0.02,0.35-0.02c0.2-0.05,0.38-0.14,0.52-0.25l0.06,0
	c0.06-0.06,0.12-0.11,0.15-0.14c0.03-0.03,0.09-0.14,0.12-0.26c0.06-0.14,0.03-0.29-0.08-0.46c-0.06-0.06-0.11-0.15-0.17-0.21
	c-0.11-0.09-0.2-0.18-0.34-0.24l-0.14-0.09c-0.03-0.03-0.06-0.03-0.09-0.03v0c0-0.03-0.03-0.03-0.06-0.03c-0.03,0-0.06,0-0.06,0
	c-0.18,0.14-0.35,0.34-0.59,0.57l-0.03,0.06c-0.24,0.26-0.41,0.43-0.53,0.57L87.08,18.68z M88.4,17.46l0.01-0.37"/>
<path class="st1" d="M88.89,22.86l-0.31-0.24c0.09-0.03,0.2,0,0.32,0.03c0.09,0.03,0.2,0.06,0.31,0.15l0.17,0.15
	c0.23-0.2,0.47-0.37,0.7-0.57c0.35-0.25,0.7-0.54,0.99-0.79c0.12-0.06,0.2-0.14,0.32-0.23c0.38-0.34,0.76-0.68,1.11-1.02l-0.42-0.53
	c0.06,0.03,0.11,0.03,0.2,0.06c0.06,0.03,0.14,0.03,0.17,0.06l0.65,0.53l0.71,0.59c-0.03,0-0.09,0-0.17,0
	c-0.09-0.03-0.14-0.03-0.2-0.03c-0.11-0.06-0.23-0.15-0.34-0.24c-0.03,0-0.06-0.03-0.09-0.03l-0.67,0.51
	c-0.23,0.17-0.5,0.37-0.73,0.54c-0.09,0.06-0.15,0.14-0.23,0.2c-0.32,0.23-0.59,0.51-0.88,0.76c-0.06,0.06-0.18,0.2-0.32,0.34
	l-0.12,0.11c-0.09,0.09-0.15,0.14-0.15,0.17l0.14,0.15l0.4,0.41l-0.29-0.03l-0.11-0.09L88.89,22.86z"/>
<path class="st1" d="M80.64,17.45c-0.03-0.14-0.02-0.29,0.01-0.4c0-0.03,0-0.06,0-0.09c0.06-0.2,0.18-0.43,0.33-0.69
	c0.24-0.46,0.56-0.8,0.88-1.05c0.41-0.28,0.9-0.48,1.42-0.5c0.35-0.05,0.61-0.02,0.87,0.01c0.23,0.06,0.52,0.18,0.83,0.33l0.2,0.09
	c0.06,0,0.09,0.03,0.14,0.06c0.37,0.21,0.63,0.5,0.71,0.91l-0.73,0.65c-0.09,0-0.11-0.03-0.14-0.03c0.06-0.11,0.12-0.23,0.15-0.34
	c0.03-0.14,0.03-0.32,0.01-0.46l0-0.03c-0.08-0.29-0.22-0.52-0.48-0.67l-0.23-0.09c-0.52-0.24-1.06-0.22-1.65,0.06
	c-0.52,0.28-0.96,0.65-1.26,1.19c-0.15,0.26-0.27,0.54-0.3,0.83c-0.03,0.29,0.02,0.55,0.16,0.78c0.14,0.23,0.34,0.44,0.6,0.56
	c0.17,0.06,0.29,0.12,0.43,0.15c0.12,0,0.26,0,0.4,0.01c0.38-0.08,0.64-0.25,0.79-0.54c0.06-0.11,0.06-0.23-0.05-0.38
	c-0.08-0.09-0.14-0.18-0.17-0.2c-0.09-0.09-0.17-0.18-0.26-0.23c-0.11-0.06-0.2-0.12-0.31-0.18c0.03-0.03,0.09-0.03,0.12-0.03
	c0.06-0.03,0.12-0.03,0.17-0.03l1.86,0.87l-0.03,0.06l-0.46-0.04l-0.15,0.17l-0.91,1.2l-0.55-0.04l0.24-0.46
	c-0.26,0.02-0.55-0.01-0.84-0.07c-0.32-0.03-0.58-0.13-0.8-0.24c-0.26-0.09-0.46-0.24-0.6-0.39c-0.14-0.15-0.25-0.32-0.34-0.55
	C80.67,17.56,80.64,17.5,80.64,17.45"/>
<path class="st1" d="M73.98,13.64c-0.14,0.03-0.29,0.08-0.44,0.17c-0.17,0.11-0.29,0.26-0.35,0.43c-0.06,0.2-0.09,0.37-0.04,0.58
	c0.05,0.2,0.17,0.38,0.34,0.5c0.09,0.06,0.17,0.12,0.23,0.15c0.09,0.03,0.14,0.06,0.23,0.09c0.26,0.09,0.52,0.1,0.84,0.01
	c-0.17-0.29-0.31-0.61-0.42-0.96c-0.11-0.32-0.19-0.64-0.24-0.99C74.07,13.62,74.04,13.62,73.98,13.64 M73.95,15.66
	c-0.17-0.03-0.34-0.06-0.52-0.12c-0.29-0.09-0.52-0.21-0.66-0.36c-0.2-0.18-0.31-0.38-0.31-0.61c0-0.09,0-0.14,0-0.2
	c0-0.09,0.03-0.14,0.06-0.2c0.03-0.12,0.12-0.23,0.21-0.31c0.09-0.11,0.23-0.2,0.38-0.28c0.18-0.11,0.38-0.17,0.64-0.22l0.23,0
	l0.17-0.03l0.03-0.11c0.15-0.34,0.39-0.66,0.71-0.88c0.06-0.03,0.12-0.06,0.17-0.08c0.29-0.17,0.61-0.25,0.96-0.24l0.14,0.06
	l0.11,0.03l0.09,0.03c0.14,0.09,0.23,0.18,0.28,0.32c0.06,0.12,0.05,0.23-0.01,0.35c-0.03,0.06-0.03,0.11-0.06,0.14
	c-0.03,0.03-0.06,0.06-0.12,0.11c-0.09,0.06-0.17,0.11-0.32,0.17c-0.17,0.08-0.44,0.14-0.72,0.22c-0.09,0-0.23,0.03-0.38,0.05
	c-0.09,0.03-0.2,0.03-0.29,0.05c-0.03,0.32,0.02,0.63,0.16,0.95c0.03,0.09,0.06,0.17,0.11,0.26c0.11,0.2,0.25,0.41,0.42,0.61
	c0.17-0.08,0.35-0.2,0.52-0.34c0.06-0.06,0.12-0.11,0.15-0.17c0.09-0.08,0.15-0.2,0.21-0.31c0.03-0.11,0.06-0.23,0.06-0.32
	c0-0.12-0.02-0.23-0.08-0.35c-0.03-0.09-0.08-0.2-0.17-0.26c-0.03-0.03-0.06-0.06-0.09-0.09c0.03,0,0.06,0,0.09,0.03
	c0.03,0,0.09,0,0.14,0.03c0.09,0.03,0.17,0.06,0.23,0.09c0.09,0.03,0.17,0.06,0.29,0.09l0.12,0.03c0.03,0,0.09,0.03,0.11,0.03
	c0.06,0,0.09,0,0.11,0.03l0.06,0c0.17,0.03,0.29,0.06,0.35,0.06c0.2,0.03,0.38,0.01,0.52,0.01c0-0.03,0.03-0.03,0.06-0.03
	c0.06,0,0.12-0.06,0.18-0.14c0-0.09,0.03-0.14,0.03-0.23c-0.03-0.09-0.06-0.15-0.03-0.2c0.03-0.06,0.09-0.11,0.2-0.11
	c0.14,0.03,0.23,0.03,0.26,0.03l0.03,0c0.06,0.09,0.06,0.12,0.08,0.15c0,0.03,0,0.06,0,0.09l-0.03,0.06
	c-0.03,0.06-0.06,0.11-0.09,0.17c-0.03,0.12-0.15,0.23-0.29,0.28c-0.12,0.08-0.26,0.11-0.41,0.14c-0.09,0.03-0.2,0.03-0.32,0.05
	c-0.09,0-0.17,0-0.23-0.03c-0.09,0-0.14,0-0.23-0.03L77.2,14.1c-0.09-0.03-0.14-0.06-0.2-0.09c-0.03,0.06-0.09,0.11-0.12,0.17
	c0,0.06-0.03,0.14-0.06,0.23c0,0.06,0,0.12-0.03,0.14c0,0.03,0,0.06,0,0.06c-0.06,0.17-0.18,0.31-0.32,0.46
	c-0.06,0-0.15,0.08-0.35,0.17c-0.12,0.06-0.29,0.14-0.49,0.25c0.14,0.18,0.31,0.32,0.48,0.41c0.11,0.06,0.2,0.12,0.31,0.15
	c0.11,0.03,0.23,0.06,0.35,0.06c0.14,0.03,0.29,0.03,0.4,0.01c0.03,0,0.09,0,0.12,0c0.26-0.02,0.52-0.11,0.75-0.25
	c0-0.03,0.03-0.03,0.06-0.06l-0.03,0.2l-0.03,0.03c-0.29,0.14-0.58,0.28-0.87,0.33c-0.03,0-0.06,0.03-0.09,0.03
	c-0.12,0.03-0.2,0.03-0.32,0.02c-0.23,0.03-0.43-0.01-0.66-0.04c-0.03-0.03-0.06-0.03-0.09-0.03c-0.09-0.03-0.17-0.06-0.26-0.09
	c-0.06-0.03-0.14-0.09-0.23-0.12c-0.06-0.06-0.14-0.12-0.23-0.18c-0.08-0.09-0.17-0.18-0.26-0.24l-0.03,0l-0.06-0.03l-0.87-0.01
	C74.03,15.67,74,15.66,73.95,15.66z M75.07,12.51c-0.09,0.08-0.15,0.17-0.18,0.26l-0.03,0.09c-0.03,0.09-0.06,0.14-0.06,0.23
	c-0.03,0.12-0.03,0.17-0.03,0.2l0.29,0.03l0.2,0.03c0.2-0.03,0.35-0.08,0.46-0.17c0.15-0.11,0.26-0.23,0.29-0.37
	c0.06-0.11,0.06-0.2,0.03-0.32c-0.03-0.09-0.08-0.17-0.2-0.2l-0.06,0c-0.14-0.06-0.35-0.03-0.52,0.08
	C75.18,12.42,75.12,12.48,75.07,12.51z"/>
<path class="st1" d="M38.34,17.13l-0.09,0.23c-0.03,0.06-0.06,0.09-0.12,0.11c-0.03,0-0.06,0-0.06,0c-0.06,0-0.12,0-0.12,0
	c0.12-0.26,0.18-0.49,0.24-0.66c0.09-0.23,0.12-0.46,0.1-0.66c-0.03-0.09-0.08-0.2-0.14-0.38c-0.06-0.15-0.08-0.26-0.08-0.29
	L38,15.33c0.15-0.11,0.26-0.23,0.38-0.31c0.03,0,0.06-0.03,0.09-0.03l0.14,0.29c0.05,0.17,0.11,0.32,0.14,0.49
	c0.03,0.14,0.02,0.29-0.01,0.46L38.34,17.13z"/>
<path class="st1" d="M33.53,14.91l-0.65-0.7c-0.03,0.23-0.04,0.46-0.04,0.78c0,0.29-0.01,0.55,0.02,0.84l-0.01,0.4
	c0.06-0.03,0.17-0.08,0.35-0.14c0.14-0.03,0.26-0.08,0.32-0.11l0.03,0c0.09-0.03,0.2-0.08,0.35-0.17c0.15-0.08,0.26-0.14,0.32-0.17
	L33.53,14.91z M33.51,16.21c-0.15,0.08-0.29,0.14-0.41,0.2l-0.26,0.11l-0.06,0.29c0,0.23,0.02,0.52,0.01,0.89
	c0,0.09,0,0.26-0.01,0.43l0.06,0.03l0.64-0.22l0.09-0.03l0.03,0l-0.12,0.2l-0.03,0.06l-1.37,0.58l-0.03-0.03
	c-0.06-0.03-0.09-0.06-0.03-0.14c0.06-0.06,0.12-0.11,0.2-0.17l0.06-0.03c0.1-0.78,0.2-1.55,0.24-2.28c0.04-0.75,0.08-1.5,0.07-2.28
	l0.38-0.34c0.2,0.23,0.4,0.44,0.57,0.64c0.11,0.12,0.23,0.23,0.34,0.35c0.17,0.18,0.31,0.35,0.45,0.47c0.2,0.21,0.37,0.35,0.51,0.5
	c0.17,0.15,0.34,0.29,0.51,0.44c0.14,0.12,0.31,0.24,0.46,0.35c0.11,0.09,0.23,0.18,0.29,0.21c0.09,0.06,0.17,0.12,0.26,0.15l0.03,0
	c0.09,0,0.17,0,0.29,0c0.12-0.03,0.2-0.05,0.32-0.11l0.2-0.08l-0.06,0.17c-0.06,0.09-0.12,0.14-0.15,0.23
	c-0.09,0.09-0.18,0.14-0.29,0.2c-0.09,0.03-0.2,0.08-0.32,0.08c-0.03,0.03-0.06,0.03-0.09,0.03c-0.14,0.03-0.23,0.05-0.23,0.05
	c-0.09,0-0.17,0-0.26-0.03c-0.09-0.06-0.23-0.18-0.46-0.38c-0.11-0.12-0.23-0.23-0.37-0.38c-0.14-0.15-0.34-0.35-0.62-0.64
	l-0.03,0.03c-0.18,0.11-0.38,0.22-0.61,0.34C33.66,16.16,33.6,16.18,33.51,16.21z"/>
<path class="st1" d="M26.13,17.76c-0.06,0.06-0.09,0.11-0.12,0.17c-0.03,0.06-0.06,0.09-0.09,0.11c0,0.03-0.03,0.06-0.03,0.09
	c-0.03,0.09,0,0.26,0.08,0.46c0.03,0.06,0.06,0.15,0.11,0.26c-0.09,0.03-0.14,0.03-0.2,0.03l-0.5-1.16
	c0.03-0.03,0.03-0.06,0.03-0.06c0.06-0.09,0.06-0.11,0.09-0.11c0.18-0.2,0.41-0.37,0.64-0.54c0.03,0,0.06-0.03,0.06-0.03
	c0.2-0.14,0.44-0.25,0.67-0.36c0.61-0.31,0.96-0.5,1.08-0.56c0.06-0.06,0.12-0.11,0.18-0.2c0-0.03,0.03-0.06,0.06-0.11
	c0,0.03,0.03,0.06,0.06,0.09c0,0.03,0.03,0.09,0.03,0.12c0.14,0.41,0.16,0.9,0.12,1.47c-0.03,0.29-0.1,0.81-0.23,1.55
	c-0.13,0.69-0.19,1.21-0.2,1.58l0.32-0.23c0.2-0.14,0.61-0.34,1.19-0.59c0.2-0.08,0.41-0.2,0.55-0.25c0.09-0.06,0.15-0.08,0.2-0.11
	c0.18-0.11,0.29-0.2,0.32-0.25c0.06-0.03,0.15-0.11,0.23-0.23c0.09-0.09,0.18-0.23,0.24-0.37c0.06-0.09,0.12-0.23,0.15-0.4
	l0.14,0.15c0,0.2-0.01,0.35-0.01,0.46c-0.03,0.32-0.1,0.58-0.24,0.75c-0.12,0.17-0.29,0.31-0.5,0.45c-0.17,0.11-0.35,0.2-0.55,0.28
	c-0.03,0.03-0.09,0.06-0.12,0.06c-0.81,0.33-1.19,0.5-1.22,0.5L28.33,21c-0.15,0.11-0.29,0.23-0.38,0.34
	c-0.12,0.11-0.15,0.23-0.18,0.4c-0.06-0.03-0.11-0.06-0.14-0.12l-0.03-0.06c0.04-0.89,0.06-1.73,0.13-2.48
	c0.04-0.75,0.08-1.56,0.18-2.42c-0.09,0.03-0.15,0.06-0.2,0.08c-0.38,0.2-0.64,0.36-0.84,0.48c-0.23,0.14-0.41,0.28-0.55,0.37
	C26.25,17.65,26.19,17.71,26.13,17.76"/>
<path class="st1" d="M21.57,21.38c0,0.06-0.03,0.09-0.06,0.11c0,0.06-0.03,0.09-0.06,0.11c0,0.03,0,0.06,0,0.09
	c0,0.12,0.02,0.23,0.11,0.41l0.03,0.06c0.03,0.06,0.08,0.12,0.17,0.23c-0.09,0.03-0.15,0.06-0.2,0.05l-0.67-1.08
	c0-0.06,0-0.06,0.03-0.09c0-0.06,0.03-0.11,0.03-0.11c0.18-0.23,0.38-0.46,0.65-0.65c0.18-0.14,0.38-0.28,0.58-0.45
	c0.35-0.23,0.64-0.42,0.79-0.54c0.09-0.06,0.15-0.11,0.18-0.14c0.06-0.06,0.12-0.11,0.15-0.2c0-0.03,0.03-0.06,0.03-0.14
	c0.03,0.03,0.06,0.06,0.08,0.09c0.03,0.03,0.06,0.09,0.06,0.12c0.2,0.38,0.3,0.87,0.32,1.45c0.02,0.29,0.04,0.84,0.03,1.59
	c-0.01,0.69,0.01,1.21,0.06,1.56l0.26-0.26l0.03-0.03c0.2-0.17,0.55-0.4,1.08-0.7l0.06-0.03c0.26-0.17,0.47-0.31,0.61-0.42
	c0.06-0.06,0.12-0.08,0.15-0.11c0.09-0.09,0.15-0.11,0.15-0.17c0.06-0.03,0.12-0.11,0.21-0.23c0.06-0.14,0.12-0.26,0.18-0.4
	c0.03-0.12,0.06-0.26,0.09-0.43l0.14,0.15c0.03,0.17,0.05,0.32,0.05,0.43c0.02,0.32-0.01,0.58-0.1,0.78
	c-0.09,0.17-0.24,0.34-0.44,0.51c-0.09,0.09-0.18,0.14-0.29,0.23c-0.09,0.06-0.2,0.11-0.32,0.2l-0.44,0.25
	C24.84,23.86,24.61,24,24.61,24l-0.29,0.26c-0.06,0.06-0.12,0.08-0.18,0.14c-0.06,0.09-0.12,0.14-0.18,0.23
	c-0.09,0.11-0.12,0.26-0.09,0.43c-0.09,0-0.14-0.03-0.2-0.09l0-0.06l0-0.03c-0.13-0.87-0.2-1.71-0.28-2.46
	c-0.07-0.75-0.15-1.56-0.22-2.43c-0.06,0.06-0.12,0.08-0.15,0.11l-0.09,0.06c-0.29,0.23-0.53,0.4-0.7,0.54
	c-0.2,0.17-0.35,0.31-0.47,0.42C21.69,21.21,21.63,21.3,21.57,21.38"/>
<path class="st1" d="M18.84,24.14l-0.26,0.2c0-0.06,0.03-0.12,0.03-0.17c0.03-0.06,0.03-0.12,0.06-0.17l0.18-0.23l0.91-1.08
	c0,0.03,0,0.09,0,0.17c0.03,0.06,0.03,0.12,0,0.17c-0.06,0.14-0.15,0.26-0.24,0.37l0.34,0.32l0.31,0.24
	c0.23,0.21,0.45,0.41,0.68,0.59c0.2,0.18,0.43,0.35,0.65,0.53c0.17,0.12,0.37,0.24,0.54,0.36c0.09,0.06,0.23,0.15,0.43,0.27
	c0.2,0.12,0.31,0.18,0.34,0.21l0.03-0.06l0.53-0.48l0,0.26l-0.53,0.63l-0.77,0.91c-0.03-0.2,0.04-0.37,0.15-0.57l0.15-0.17
	c-0.31-0.24-0.6-0.5-0.88-0.71c-0.28-0.24-0.54-0.47-0.83-0.68c-0.26-0.21-0.54-0.41-0.83-0.62c-0.23-0.18-0.49-0.33-0.74-0.5
	L18.84,24.14z"/>
<path class="st1" d="M16.58,28.31c-0.03,0-0.09-0.03-0.12-0.03c-0.03,0-0.06,0-0.09,0l-0.44,0.69l-0.05-0.32
	c0.09-0.23,0.18-0.43,0.24-0.57c0.15-0.34,0.33-0.69,0.48-0.97c0-0.03,0.03-0.09,0.06-0.14c0.06-0.11,0.12-0.23,0.18-0.31
	c0.09-0.14,0.18-0.29,0.27-0.4c0.15-0.2,0.35-0.31,0.61-0.34c0.26-0.02,0.49,0.01,0.75,0.1l0.06,0.03c0.11,0.03,0.2,0.09,0.29,0.18
	c0.14,0.06,0.23,0.18,0.34,0.29c0.2,0.26,0.28,0.61,0.27,1.07c-0.01,0.43-0.13,0.89-0.37,1.32c0.11,0.06,0.2,0.12,0.29,0.15
	c0.14,0.09,0.32,0.15,0.43,0.21c0.23,0.12,0.4,0.21,0.49,0.24c0.03,0.03,0.06,0.03,0.12,0.03c0.03,0.03,0.06,0.03,0.09,0.03
	l0.56-0.74l0.02,0.26l-0.92,1.74c-0.03-0.03-0.06-0.09-0.08-0.12c0-0.03-0.03-0.06-0.03-0.09c0.03-0.06,0.03-0.14,0.06-0.2
	c0.03-0.09,0.03-0.14,0.06-0.2l0.06-0.06l-0.43-0.24l-0.23-0.12c-0.29-0.15-0.54-0.3-0.77-0.42c-0.09-0.06-0.2-0.12-0.29-0.15
	c-0.14-0.09-0.29-0.15-0.37-0.21c-0.52-0.24-0.94-0.45-1.29-0.6C16.72,28.37,16.66,28.34,16.58,28.31 M16.83,27.25
	c-0.03,0.11-0.09,0.2-0.12,0.32c0,0-0.03,0.03-0.03,0.09l0.06,0.06l0.09,0.06l1.66,0.84l0.29,0.15l0.06,0.03
	c0.18-0.37,0.27-0.72,0.22-1.09c-0.02-0.29-0.11-0.52-0.25-0.7c-0.06-0.09-0.14-0.18-0.26-0.24l-0.03-0.03l-0.2-0.06
	c-0.2-0.09-0.43-0.12-0.63-0.1c-0.23,0.02-0.41,0.11-0.55,0.28c-0.06,0.03-0.09,0.09-0.15,0.17c-0.06,0.09-0.09,0.14-0.09,0.14
	C16.86,27.19,16.85,27.22,16.83,27.25z"/>
<path class="st1" d="M43.34,10.65c-0.02-0.02-0.04-0.08-0.05-0.11c-0.02-0.02-0.04-0.04-0.06-0.07l-0.81,0.13l0.2-0.25
	c0.23-0.09,0.44-0.16,0.59-0.21c0.36-0.12,0.73-0.22,1.04-0.3c0.02-0.02,0.08-0.04,0.15-0.05c0.12-0.03,0.25-0.07,0.35-0.08
	c0.17-0.03,0.33-0.06,0.47-0.07c0.25-0.02,0.47,0.05,0.66,0.23s0.32,0.37,0.43,0.62l0.02,0.06c0.05,0.11,0.07,0.21,0.06,0.33
	c0.05,0.15,0.02,0.29,0.01,0.45c-0.06,0.32-0.26,0.62-0.61,0.92c-0.33,0.29-0.75,0.5-1.23,0.62c0.03,0.12,0.05,0.23,0.08,0.31
	c0.03,0.17,0.1,0.33,0.13,0.46c0.07,0.25,0.11,0.44,0.15,0.52c0,0.04,0.02,0.06,0.05,0.11c0,0.04,0.02,0.06,0.04,0.08l0.93-0.08
	l-0.18,0.19l-1.91,0.49c0-0.04,0.03-0.1,0.03-0.14c0.02-0.02,0.02-0.06,0.05-0.08c0.06-0.02,0.13-0.07,0.19-0.09
	c0.08-0.04,0.13-0.07,0.19-0.09l0.08,0.01l-0.11-0.48l-0.07-0.25c-0.08-0.31-0.14-0.6-0.21-0.85c-0.01-0.1-0.05-0.23-0.08-0.31
	c-0.03-0.17-0.08-0.31-0.1-0.42c-0.17-0.54-0.3-1-0.42-1.36C43.39,10.79,43.37,10.73,43.34,10.65 M44.29,10.12
	c-0.11,0.05-0.21,0.07-0.31,0.12c0,0-0.04,0-0.08,0.04l-0.01,0.08l0.01,0.1l0.5,1.79l0.08,0.31l0.02,0.06
	c0.4-0.12,0.71-0.28,0.96-0.57c0.2-0.21,0.31-0.43,0.35-0.65c0.03-0.1,0.03-0.22,0-0.35l0-0.04l-0.09-0.19
	c-0.07-0.21-0.2-0.4-0.35-0.53c-0.17-0.15-0.35-0.23-0.58-0.22c-0.06-0.02-0.12-0.01-0.23,0.01c-0.1,0.01-0.17,0.03-0.17,0.03
	C44.36,10.1,44.33,10.12,44.29,10.12z"/>
<path class="st1" d="M48.28,12.08l-0.02,0.06c-0.08,0.22-0.18,0.52-0.31,0.86c-0.04,0.09-0.08,0.25-0.14,0.43l0.04,0.05l0.63-0.07
	l0.14-0.02l0.03,0.02l-0.16,0.11l-0.07,0.1l-1.48,0.23l-0.06-0.02c-0.04-0.05-0.01-0.09,0.04-0.15c0.08-0.04,0.16-0.08,0.25-0.1
	l0.09-0.01c0.36-0.73,0.66-1.41,0.94-2.07l0.04-0.09c0.3-0.72,0.6-1.43,0.84-2.17L49.56,9c0.19,0.47,0.36,0.85,0.53,1.17
	c0.17,0.33,0.3,0.63,0.42,0.87c0.07,0.11,0.12,0.19,0.16,0.27c0.2,0.35,0.43,0.69,0.65,1.01c0.11,0.13,0.15,0.21,0.21,0.26
	c0.05,0.11,0.14,0.15,0.21,0.2c0.09,0.04,0.18,0.06,0.3,0.07c0.09,0.02,0.2,0,0.32-0.02l0.23-0.03l-0.12,0.16
	c-0.08,0.07-0.13,0.11-0.21,0.18c-0.11,0.05-0.22,0.09-0.36,0.11c-0.11,0.02-0.26,0.04-0.4,0.03c-0.15-0.01-0.24-0.02-0.27-0.02
	c-0.06-0.02-0.15-0.04-0.19-0.09c-0.07-0.05-0.14-0.18-0.26-0.37c-0.08-0.13-0.17-0.32-0.29-0.57c-0.08-0.16-0.21-0.43-0.38-0.76
	c-0.06,0.01-0.11,0.05-0.17,0.05c-0.17,0.05-0.36,0.11-0.56,0.14c-0.28,0.07-0.5,0.14-0.68,0.16l-0.31,0.05L48.28,12.08z
	 M49.87,11.02l-0.65-1.36c-0.11,0.22-0.19,0.47-0.3,0.75c-0.1,0.28-0.21,0.56-0.29,0.8l-0.14,0.4c0.09-0.01,0.2-0.03,0.37-0.06
	c0.18,0,0.32-0.02,0.4-0.03c0.09-0.01,0.2-0.03,0.37-0.09c0.11-0.02,0.2-0.03,0.28-0.04c0.02-0.03,0.05-0.04,0.08-0.04L49.87,11.02z
	"/>
<path class="st1" d="M54.97,13.01c-0.17,0.01-0.32,0.04-0.43,0.04l-0.18,0.01c-0.2,0.02-0.38,0.03-0.5,0
	c-0.12,0-0.22-0.07-0.33-0.16c-0.12-0.12-0.18-0.25-0.21-0.4c-0.03-0.14-0.01-0.29,0.06-0.49c0.04-0.07,0.08-0.17,0.14-0.27
	c0.05-0.04,0.1-0.08,0.21-0.11l-0.03,0.13c0.01,0.29,0.15,0.53,0.38,0.74c0.25,0.18,0.53,0.26,0.83,0.25l0.03-0.01
	c0.06-0.01,0.17-0.04,0.28-0.07c0.25-0.09,0.42-0.22,0.57-0.37c0.14-0.18,0.21-0.37,0.19-0.58l0.01-0.09
	c-0.02-0.08-0.03-0.14-0.05-0.2c-0.01-0.06-0.09-0.13-0.16-0.2c-0.07-0.04-0.15-0.11-0.21-0.16c-0.1-0.06-0.34-0.19-0.74-0.36
	c-0.17-0.08-0.31-0.17-0.42-0.29l-0.04-0.05c-0.12-0.12-0.17-0.23-0.21-0.25c-0.09-0.13-0.11-0.24-0.14-0.35
	c0.02-0.15,0.05-0.31,0.1-0.47c0.06-0.13,0.14-0.27,0.27-0.39c0.26-0.3,0.55-0.45,0.91-0.54l0.32-0.04l0.18-0.01
	c0.12,0,0.27,0.03,0.38,0.09c0.06,0.02,0.1,0.06,0.17,0.11c0,0,0.04,0.05,0.12,0.15c-0.04,0.1-0.05,0.16-0.1,0.23
	c-0.02,0.03-0.08,0.17-0.2,0.4l-0.14,0.03l-0.01-0.03c-0.02-0.2-0.08-0.37-0.26-0.47c-0.15-0.11-0.31-0.17-0.51-0.15
	c-0.08,0.02-0.17,0.04-0.22,0.05c-0.08,0.02-0.16,0.07-0.26,0.15c-0.08,0.05-0.14,0.15-0.18,0.25c-0.04,0.1-0.07,0.19-0.05,0.31
	c0,0.24,0.17,0.46,0.44,0.64c0.11,0.09,0.33,0.16,0.65,0.26c0.22,0.07,0.42,0.17,0.54,0.29c0.12,0.15,0.21,0.28,0.29,0.38
	c0.05,0.08,0.08,0.22,0.08,0.34c0.04,0.29-0.07,0.58-0.3,0.9c-0.19,0.31-0.44,0.52-0.75,0.62c-0.11,0.03-0.28,0.07-0.45,0.1
	L54.97,13.01z"/>
<path class="st1" d="M57.56,9.51c0.01-0.08,0.01-0.17,0.03-0.28c0.05-0.23,0.1-0.48,0.15-0.71l0.03,0.01c0.2,0.01,0.5,0.02,0.9,0.07
	c0.44,0.03,0.75,0.07,0.96,0.06c0.06,0.01,0.15,0,0.23,0.02c0.18,0.01,0.39-0.01,0.62-0.02c0.62-0.02,1.06-0.01,1.3,0.01
	c0.06-0.02,0.09-0.01,0.12,0l0.11,1.03c-0.08,0.1-0.15,0.17-0.29,0.24l-0.13-0.35l-0.13-0.35c0.01-0.03-0.01-0.09-0.04-0.1
	c-0.02-0.03-0.07-0.07-0.1-0.11c-0.02-0.03-0.05-0.04-0.05-0.04c-0.05-0.04-0.11-0.05-0.13-0.06c-0.06-0.01-0.11-0.02-0.17-0.04
	c-0.08-0.02-0.18-0.01-0.23-0.02c-0.12,0-0.24,0.01-0.32-0.01c-0.09,0.01-0.18,0.02-0.27,0.03l-0.03,0.29
	c-0.06,0.55-0.11,1.1-0.14,1.65c-0.03,0.55-0.06,1.11-0.03,1.67c-0.01,0.06,0.01,0.09,0,0.12c0.02,0.06,0.01,0.09,0.03,0.13
	l0.92,0.11l0.03,0.01l-0.03,0.02l-0.12,0.15l-1.82-0.06l-0.64-0.02l0.28-0.21l0.42-0.03l0.27,0c0.01-0.03,0.02-0.08,0.02-0.11
	c0.01-0.06,0.02-0.08,0.03-0.14c0.03-0.41,0.07-0.87,0.09-1.43c0-0.15,0-0.29,0.03-0.44c0.01-0.35,0.02-0.64,0.01-0.88
	c0.01-0.35,0.02-0.64,0.03-0.85c-0.09,0.01-0.18-0.01-0.26-0.03c-0.09,0.01-0.21,0.02-0.32-0.01c-0.09,0.01-0.15,0-0.24,0.01
	c-0.06-0.01-0.12,0-0.18-0.01c-0.06,0.02-0.1,0.04-0.16,0.06c0,0-0.03-0.01-0.03,0.02C58.22,9.05,58.13,9.2,58,9.38
	c-0.06,0.14-0.15,0.29-0.25,0.48l-0.27,0.03c0.02-0.11,0.05-0.23,0.08-0.37L57.56,9.51L57.56,9.51L57.56,9.51z"/>
<path class="st1" d="M63.76,11.69l-0.03,0.06c-0.13,0.19-0.29,0.47-0.48,0.78c-0.06,0.08-0.13,0.22-0.23,0.39l0.03,0.06l0.63,0.07
	l0.14,0.01l0.03,0.03l-0.18,0.08l-0.09,0.08l-1.5-0.09l-0.06-0.03c-0.03-0.06,0.01-0.09,0.07-0.14c0.09-0.02,0.18-0.05,0.26-0.04
	l0.09,0.01c0.5-0.63,0.94-1.24,1.35-1.83l0.06-0.08c0.44-0.64,0.89-1.28,1.27-1.95l0.53-0.14c0.09,0.5,0.18,0.91,0.27,1.26
	c0.09,0.35,0.16,0.67,0.23,0.94c0.05,0.12,0.07,0.21,0.1,0.29c0.12,0.38,0.27,0.77,0.42,1.12c0.08,0.15,0.1,0.24,0.16,0.3
	c0.02,0.12,0.1,0.18,0.16,0.24c0.08,0.06,0.17,0.1,0.28,0.13c0.08,0.03,0.2,0.04,0.32,0.05l0.23,0.01l-0.15,0.14
	c-0.09,0.05-0.15,0.08-0.24,0.13c-0.12,0.02-0.23,0.04-0.38,0.03c-0.12-0.01-0.26-0.02-0.4-0.05c-0.14-0.04-0.23-0.07-0.26-0.07
	c-0.06-0.03-0.14-0.07-0.17-0.13c-0.05-0.06-0.1-0.21-0.18-0.42c-0.05-0.15-0.09-0.35-0.16-0.62c-0.05-0.18-0.12-0.47-0.21-0.82
	c-0.06,0-0.12,0.02-0.17,0.02c-0.17,0.02-0.38,0.04-0.58,0.02c-0.29,0.01-0.52,0.03-0.69,0.02l-0.32-0.02L63.76,11.69z M65.54,10.99
	l-0.34-1.47c-0.16,0.19-0.29,0.42-0.44,0.67c-0.16,0.25-0.32,0.5-0.45,0.72l-0.22,0.36c0.09,0.01,0.2,0.01,0.37,0.02
	c0.17,0.04,0.31,0.05,0.4,0.05c0.09,0.01,0.2,0.01,0.38-0.01c0.12,0.01,0.2,0.01,0.29,0.02c0.03-0.03,0.06-0.03,0.09-0.02
	L65.54,10.99z"/>
</svg>
